<svg width="200" height="100" viewBox="0 0 200 100" fill="none" xmlns="http://www.w3.org/2000/svg">
<path d="M66.468 41.7671L65.7563 40.5128C65.7004 40.4145 65.6227 40.3305 65.5292 40.2673C65.4357 40.2041 65.3289 40.1635 65.2172 40.1485C65.1054 40.1336 64.9917 40.1448 64.885 40.1812C64.7783 40.2176 64.6814 40.2783 64.6019 40.3585L62.9649 42C62.8452 42.1207 62.7708 42.2792 62.7542 42.4487C62.7376 42.6181 62.7798 42.7882 62.8738 42.93C63.4707 43.8454 63.949 44.8333 64.2972 45.87C64.9478 47.8079 65.1295 49.8733 64.8273 51.8957C64.525 53.918 63.7475 55.8391 62.5591 57.5001C61.3706 59.1612 59.8053 60.5145 57.9926 61.4482C56.1798 62.382 54.1717 62.8693 52.1341 62.87C50.0365 62.8758 47.9701 62.361 46.1187 61.3714L48.8873 58.5914C50.6028 59.2426 52.4736 59.3624 54.2577 58.9354C56.0418 58.5083 57.6573 57.554 58.8953 56.1958C60.1334 54.8376 60.937 53.138 61.2025 51.3166C61.4679 49.4951 61.1829 47.6357 60.3843 45.9785C60.3336 45.8724 60.2582 45.7801 60.1646 45.7092C60.071 45.6384 59.9618 45.5911 59.8462 45.5714C59.7306 45.5516 59.612 45.56 59.5003 45.5958C59.3886 45.6316 59.287 45.6938 59.2042 45.7771L57.5474 47.4285C57.459 47.5171 57.3947 47.6268 57.3606 47.7474C57.3265 47.8679 57.3236 47.9952 57.3524 48.1171L57.4947 48.7143C57.7396 49.7603 57.675 50.8553 57.3086 51.865C56.9423 52.8747 56.2903 53.755 55.4325 54.3981C54.5747 55.0411 53.5486 55.4188 52.4799 55.4849C51.4113 55.551 50.3467 55.3025 49.4168 54.77L48.6866 54.35C48.547 54.2693 48.3848 54.2372 48.2252 54.2586C48.0656 54.2801 47.9175 54.3539 47.804 54.4685L41.0414 61.2543C40.9675 61.3283 40.9103 61.4174 40.8736 61.5155C40.8368 61.6135 40.8214 61.7184 40.8283 61.8229C40.8351 61.9275 40.8642 62.0293 40.9134 62.1217C40.9627 62.2141 41.0311 62.2948 41.114 62.3585L42.1104 63.1257C44.9838 65.3481 48.5121 66.5482 52.1398 66.5371C55.0279 66.5334 57.8646 65.7695 60.3666 64.3216C62.8686 62.8737 64.9484 60.7925 66.3984 58.2857C67.8485 55.7789 68.618 52.9343 68.6302 50.0357C68.6424 47.1372 67.8968 44.2861 66.468 41.7671Z" fill="url(#paint0_linear)"/>
<path d="M62.167 36.8314C59.2939 34.6082 55.7654 33.4076 52.1375 33.4185C49.248 33.4208 46.4097 34.184 43.9061 35.632C41.4025 37.0799 39.3214 39.1619 37.8706 41.6699C36.4199 44.1779 35.6503 47.024 35.6388 49.924C35.6273 52.824 36.3743 55.6762 37.8051 58.1957L38.5168 59.4485C38.5729 59.5467 38.6507 59.6307 38.7443 59.6938C38.8378 59.757 38.9447 59.7977 39.0564 59.8127C39.1682 59.8278 39.2819 59.8168 39.3888 59.7807C39.4956 59.7445 39.5928 59.6841 39.6726 59.6042L41.3067 57.9643C41.4256 57.8434 41.4995 57.6852 41.5161 57.5161C41.5326 57.3471 41.4909 57.1775 41.3978 57.0357C40.8004 56.1206 40.322 55.1326 39.9744 54.0957C39.3238 52.1578 39.1421 50.0923 39.4444 48.07C39.7466 46.0477 40.5241 44.1266 41.7126 42.4655C42.901 40.8045 44.4663 39.4511 46.2791 38.5174C48.0918 37.5837 50.1 37.0963 52.1375 37.0957C54.2351 37.0909 56.3011 37.6072 58.1515 38.5985L55.3815 41.3771C53.9939 40.8493 52.4994 40.6675 51.0263 40.8474C49.5533 41.0272 48.1458 41.5634 46.9248 42.4097C45.7038 43.256 44.7057 44.3872 44.0165 45.7061C43.3273 47.025 42.9674 48.4921 42.9679 49.9814C42.9679 50.1342 43.0091 50.8314 43.0219 50.9514C43.1342 52.0065 43.4265 53.0343 43.886 53.99C43.9368 54.0961 44.0123 54.1884 44.1061 54.2593C44.1998 54.3301 44.3091 54.3774 44.4248 54.3971C44.5405 54.4168 44.6592 54.4084 44.771 54.3727C44.8828 54.3369 44.9845 54.2747 45.0674 54.1914L46.7243 52.5271C46.8125 52.4388 46.8769 52.3293 46.9112 52.2091C46.9456 52.0889 46.9489 51.9618 46.9207 51.84L46.7784 51.2414C46.5331 50.1953 46.5976 49.1002 46.9638 48.0904C47.3301 47.0806 47.9823 46.2001 48.8402 45.5571C49.6981 44.9141 50.7245 44.5366 51.7932 44.4708C52.8619 44.4051 53.9266 44.6541 54.8563 45.1871L55.5865 45.6071C55.7262 45.6871 55.8883 45.7188 56.0477 45.6973C56.2071 45.6759 56.3552 45.6026 56.469 45.4885L63.2303 38.7028C63.3042 38.6287 63.3615 38.5396 63.3984 38.4415C63.4353 38.3433 63.4509 38.2384 63.4442 38.1338C63.4374 38.0291 63.4085 37.9271 63.3594 37.8346C63.3102 37.742 63.2419 37.6611 63.1591 37.5971L62.167 36.8314Z" fill="url(#paint1_linear)"/>
<path d="M89.9615 54.5486C89.8382 54.4481 89.6833 54.3949 89.5244 54.3986C89.3656 54.4022 89.2133 54.4625 89.0947 54.5686C88.0342 55.3943 86.8044 56.1586 85.0066 56.1586C81.7156 56.1586 79.0382 53.3772 79.0382 49.9557C79.0382 46.5343 81.7057 43.7286 84.9824 43.7286C86.4058 43.7286 87.9431 44.33 89.0733 45.3258C89.137 45.3999 89.2162 45.4591 89.3053 45.4991C89.3943 45.5391 89.491 45.5589 89.5886 45.5572C89.6731 45.5504 89.7551 45.5252 89.8289 45.4833C89.9027 45.4413 89.9664 45.3836 90.0156 45.3143L91.086 44.2086C91.1542 44.1424 91.2079 44.0629 91.2439 43.9748C91.2799 43.8868 91.2974 43.7923 91.2953 43.6972C91.2913 43.6005 91.2674 43.5057 91.2253 43.4187C91.1832 43.3317 91.1237 43.2544 91.0504 43.1915C89.1815 41.5572 87.304 40.8286 84.9568 40.8286C79.9463 40.8286 75.8696 44.9458 75.8696 50.0057C75.8715 52.4246 76.8293 54.7439 78.5328 56.455C80.2364 58.1661 82.5466 59.1291 84.9568 59.1329C86.089 59.1463 87.2126 58.9349 88.2631 58.5107C89.3135 58.0866 90.27 57.4581 91.0775 56.6615C91.1483 56.5889 91.204 56.5029 91.2412 56.4084C91.2783 56.314 91.2962 56.213 91.2938 56.1115C91.2919 56.0306 91.2738 55.951 91.2406 55.8774C91.2073 55.8037 91.1596 55.7376 91.1003 55.6829L89.9615 54.5486Z" fill="white"/>
<path d="M97.7521 41.0771H96.1309C95.95 41.0832 95.7782 41.1583 95.6505 41.287C95.5227 41.4157 95.4487 41.5884 95.4434 41.77V58.1986C95.4483 58.3804 95.5222 58.5535 95.65 58.6825C95.7777 58.8115 95.9497 58.8867 96.1309 58.8929H97.7521C97.9333 58.8867 98.1053 58.8115 98.233 58.6825C98.3608 58.5535 98.4347 58.3804 98.4397 58.1986V41.77C98.4343 41.5884 98.3603 41.4157 98.2326 41.287C98.1048 41.1583 97.933 41.0832 97.7521 41.0771Z" fill="white"/>
<path d="M116.939 46.6071C116.939 43.5586 114.438 41.0771 111.363 41.0771H104.677C104.495 41.0779 104.32 41.1512 104.191 41.2811C104.062 41.4109 103.99 41.5867 103.99 41.77V58.1986C103.989 58.3821 104.062 58.5583 104.19 58.6884C104.319 58.8186 104.494 58.8921 104.677 58.8929H106.274C106.455 58.8867 106.627 58.8115 106.755 58.6825C106.883 58.5535 106.957 58.3804 106.962 58.1986V52.0886H110.313L113.522 58.5386C113.581 58.6443 113.666 58.7322 113.77 58.7933C113.874 58.8544 113.993 58.8863 114.113 58.8857H116.029C116.15 58.8897 116.27 58.8616 116.377 58.8042C116.484 58.7467 116.573 58.662 116.637 58.5586C116.697 58.4494 116.729 58.3264 116.729 58.2014C116.729 58.0764 116.697 57.9535 116.637 57.8443L113.38 51.7529C115.581 50.7714 116.939 48.82 116.939 46.6071ZM113.942 46.6571C113.942 48.2043 112.671 49.5143 111.167 49.5143H107.012V43.9271H111.161C112.668 43.9271 113.937 45.1771 113.937 46.6571H113.942Z" fill="white"/>
<path d="M134.388 54.5486C134.265 54.4481 134.11 54.3949 133.951 54.3986C133.792 54.4023 133.64 54.4625 133.521 54.5686C132.461 55.3943 131.231 56.1586 129.433 56.1586C126.142 56.1586 123.465 53.3772 123.465 49.9558C123.465 46.5343 126.131 43.7286 129.407 43.7286C130.831 43.7286 132.368 44.33 133.5 45.3258C133.564 45.4006 133.644 45.4603 133.734 45.5003C133.823 45.5403 133.921 45.5598 134.019 45.5572C134.104 45.5504 134.186 45.5252 134.26 45.4833C134.333 45.4413 134.397 45.3836 134.446 45.3143L135.517 44.2086C135.585 44.1424 135.638 44.0627 135.674 43.9747C135.71 43.8867 135.727 43.7922 135.725 43.6972C135.721 43.6006 135.698 43.5057 135.656 43.4186C135.614 43.3316 135.555 43.2542 135.481 43.1915C133.617 41.5572 131.739 40.8286 129.392 40.8286C124.381 40.8286 120.305 44.9458 120.305 50.0058C120.307 52.4246 121.264 54.744 122.968 56.455C124.671 58.1661 126.982 59.1291 129.392 59.1329C130.524 59.1462 131.648 58.9347 132.698 58.5105C133.748 58.0864 134.705 57.458 135.513 56.6615C135.584 56.5887 135.639 56.5025 135.676 56.4078C135.714 56.313 135.731 56.2118 135.729 56.11C135.727 56.0292 135.709 55.9496 135.676 55.8759C135.642 55.8023 135.595 55.7361 135.535 55.6815L134.388 54.5486Z" fill="white"/>
<path d="M149.3 56.1343H142.866V41.77C142.861 41.5884 142.787 41.4157 142.659 41.287C142.531 41.1583 142.359 41.0832 142.178 41.0771H140.557C140.375 41.0779 140.2 41.1512 140.071 41.2811C139.942 41.4109 139.87 41.5867 139.87 41.77V58.1986C139.869 58.3821 139.941 58.5583 140.07 58.6884C140.199 58.8186 140.374 58.8921 140.557 58.8929H149.3C149.39 58.8927 149.48 58.8746 149.564 58.8396C149.648 58.8046 149.724 58.7534 149.788 58.6889C149.851 58.6244 149.902 58.548 149.937 58.4638C149.971 58.3797 149.989 58.2896 149.989 58.1986V56.8343C149.99 56.7428 149.973 56.6521 149.938 56.5673C149.904 56.4825 149.854 56.4053 149.79 56.3402C149.725 56.2752 149.649 56.2235 149.565 56.1881C149.481 56.1528 149.391 56.1345 149.3 56.1343Z" fill="white"/>
<path d="M163.864 43.8571C164.047 43.8564 164.222 43.783 164.35 43.6532C164.479 43.5233 164.552 43.3475 164.552 43.1643V41.7743C164.552 41.591 164.479 41.4152 164.35 41.2854C164.222 41.1555 164.047 41.0822 163.864 41.0814H154.042C153.86 41.0822 153.685 41.1555 153.556 41.2854C153.427 41.4152 153.355 41.591 153.355 41.7743V58.2029C153.355 58.3864 153.427 58.5625 153.556 58.6927C153.685 58.8229 153.86 58.8964 154.042 58.8971H163.864C164.047 58.8964 164.222 58.8229 164.351 58.6927C164.48 58.5625 164.552 58.3864 164.552 58.2029V56.8386C164.552 56.6553 164.479 56.4795 164.35 56.3496C164.222 56.2198 164.047 56.1465 163.864 56.1457H156.32V51.2443H162.656C162.838 51.2439 163.014 51.1707 163.143 51.0408C163.272 50.9109 163.345 50.7349 163.345 50.5514V49.1628C163.34 48.9808 163.265 48.8075 163.137 48.6785C163.009 48.5494 162.837 48.4743 162.656 48.4686H156.324V43.8571H163.864Z" fill="white"/>
<defs>
<linearGradient id="paint0_linear" x1="46.3166" y1="67.5971" x2="69.6307" y2="44.367" gradientUnits="userSpaceOnUse">
<stop stop-color="#B090F5"/>
<stop offset="1" stop-color="#5FBFFF"/>
</linearGradient>
<linearGradient id="paint1_linear" x1="34.7262" y1="55.6785" x2="58.0418" y2="32.4484" gradientUnits="userSpaceOnUse">
<stop stop-color="#68D7FA"/>
<stop offset="1" stop-color="#4EE498"/>
</linearGradient>
</defs>
</svg>
