<svg width="200" height="100" viewBox="0 0 200 100" fill="none" xmlns="http://www.w3.org/2000/svg">
<path d="M41.7297 49.0928C41.7155 44.0262 39.1655 39.3253 34.9842 36.6565L36.3077 35.0758L35.6772 34.7259C31.4277 32.3714 26.3022 32.4292 22.1037 34.8792C17.9056 37.3293 15.2231 41.8281 15 46.7928V54.6483L39.58 62.8613V64.9594H18.1568V58.9185H17.0064V64.9596H15V66.1446H40.7305V62.0001L37.7466 61.0032V59.2245C40.3073 56.5121 41.7368 52.876 41.7295 49.0928H41.7297ZM63.4059 40.0157C65.1331 40.0157 66.8537 40.2273 68.5295 40.6456L68.1338 43.7644C66.6122 43.473 65.0687 43.3104 63.5197 43.2785C61.0571 43.2785 60.2643 44.1367 60.2643 46.1685V53.4943C60.2643 55.526 61.0571 56.3848 63.5198 56.3848C65.0688 56.3529 66.6123 56.1902 68.1338 55.8981L68.5295 59.0169C66.8538 59.4356 65.1331 59.6471 63.4059 59.6468C58.7071 59.6468 56.698 57.615 56.698 54.124V45.5392C56.698 42.0477 58.7071 40.0157 63.4059 40.0157ZM77.1635 45.1381C81.8906 45.1381 83.1641 47.7711 83.1641 50.6322V54.1525C83.1641 57.0138 81.8906 59.6465 77.1635 59.6465C72.4363 59.6465 71.1629 57.0138 71.1629 54.1525V50.6322C71.1629 47.7711 72.4363 45.1381 77.1635 45.1381ZM115.529 40.016C117.173 40.0269 118.809 40.2481 120.397 40.6744L120.2 42.1049C118.686 41.7546 117.139 41.5628 115.586 41.5326C111.85 41.5326 111.34 42.4484 111.34 44.8238C111.34 47.9138 111.425 48.057 115.387 49.0589C120.341 50.3177 120.624 51.0334 120.624 54.6387C120.625 57.7582 119.577 59.6469 114.793 59.6469C112.98 59.6518 111.179 59.3419 109.472 58.7309L109.783 57.3576C111.425 57.8612 113.132 58.1215 114.85 58.1304C118.077 58.1304 118.954 57.1571 118.954 54.7247C118.954 51.7769 118.925 51.4627 114.736 50.4894C110.18 49.4303 109.669 48.6009 109.669 44.7665C109.669 41.6469 110.803 40.016 115.529 40.016ZM144.12 45.1378C147.686 45.1378 149.102 46.5692 149.102 49.1734V59.3606H147.686L147.574 58.2726C146.181 59.1692 144.56 59.6462 142.903 59.6468C140.469 59.6468 139.336 58.2441 139.336 55.7552C139.336 52.8074 140.667 51.8919 143.384 51.8919H147.461V49.1734C147.461 47.256 146.47 46.6263 144.205 46.6263C142.835 46.6466 141.47 46.8001 140.13 47.0845L139.874 45.6817C141.262 45.3269 142.688 45.1442 144.12 45.1378ZM166.907 45.1381C170.785 45.1381 171.917 47.3418 171.917 50.2034V52.893H163.398V54.6391C163.398 57.1288 164.247 58.1873 166.993 58.1873C168.468 58.1551 169.933 57.9338 171.352 57.529L171.635 58.8743C170.101 59.3848 168.496 59.6457 166.879 59.6472C163.001 59.6472 161.756 57.6148 161.756 54.5819V50.2034C161.756 47.3418 163.03 45.1381 166.907 45.1381H166.907ZM180.156 45.1386C181.474 45.1326 182.787 45.2961 184.062 45.6252L183.892 47.0273C182.623 46.7791 181.335 46.6449 180.042 46.6263C177.637 46.6263 177.297 47.2563 177.297 48.7726C177.297 50.6898 177.41 50.8902 179.957 51.5487C184.006 52.5786 184.231 53.2368 184.231 55.8412C184.231 58.3594 183.326 59.6469 179.647 59.6469C178.265 59.6504 176.895 59.4081 175.598 58.9312L175.882 57.5865C177.067 57.9449 178.296 58.1376 179.533 58.1588C182.08 58.1588 182.591 57.6724 182.591 55.8983C182.591 53.8951 182.533 53.6946 179.392 52.9505C175.938 52.1204 175.655 51.2624 175.655 48.7153C175.655 46.3974 176.759 45.1386 180.156 45.1386ZM102.413 45.1386C104.706 45.1386 105.527 46.7693 105.527 49.2591V59.3603H102.073V49.6312C102.073 48.8869 101.762 48.5149 100.97 48.5149C100.12 48.5149 98.6207 49.03 97.3751 49.6879V59.3603H93.9212V45.4246H96.554L96.8937 46.5983C98.6103 45.7289 100.491 45.2315 102.413 45.1386ZM126.795 39.5012V46.6548C128.268 45.9394 130.674 45.1386 132.315 45.1386C134.467 45.1386 135.23 46.3686 135.23 48.2858V59.3603H133.589V48.0855C133.589 47.0556 133.051 46.6836 132.089 46.6836C130.956 46.6836 128.522 47.3705 126.795 48.2858V59.3603H125.154V39.7301L126.795 39.5012ZM159.435 45.1386L159.632 46.7694C158.111 47.5062 156.653 48.3676 155.273 49.3449V59.3605H153.632V45.4247H155.104L155.189 47.5416C156.66 46.5691 158.132 45.6252 159.435 45.1386ZM89.9584 45.4244V59.3602H86.5053V45.4244H89.9582H89.9584ZM147.461 53.3799H143.441C141.545 53.3799 140.978 53.9518 140.978 55.7831C140.978 57.4147 141.318 58.1588 143.242 58.1588C144.759 58.1072 146.226 57.6093 147.461 56.7276V53.38V53.3799ZM77.1633 48.1145C75.3235 48.1145 74.6157 48.9441 74.6157 50.5186V54.2671C74.6157 55.8408 75.3235 56.6708 77.1633 56.6708C79.0037 56.6708 79.7109 55.8408 79.7109 54.2671V50.5178C79.7109 48.9441 79.0037 48.1145 77.1633 48.1145ZM166.907 46.569C164.331 46.569 163.398 47.7998 163.398 50.1462V51.4052H170.305V50.1462C170.305 47.7998 169.484 46.569 166.907 46.569ZM89.9582 39.4151V43.45H86.5053V39.4151H89.9582ZM36.5961 60.6187L16.1505 53.787L16.1499 46.8213C16.3573 42.4001 18.69 38.3764 22.3705 36.0913C26.0509 33.8061 30.5947 33.5604 34.4872 35.4358L28.4802 42.6099C26.3683 42.077 24.1654 43.0206 23.0433 44.9387C21.921 46.8568 22.1403 49.3037 23.5844 50.9779C25.0284 52.652 27.3618 53.1642 29.3432 52.2423L36.5961 59.2541V60.6187ZM28.9645 47.5782C28.9645 48.2681 28.5609 48.8902 27.942 49.1542C27.323 49.4183 26.6106 49.2724 26.1368 48.7845C25.6633 48.2966 25.5214 47.5628 25.7779 46.9253C26.0343 46.2878 26.6382 45.8722 27.3081 45.8722C28.2225 45.8732 28.9634 46.6364 28.9645 47.5782ZM37.15 58.1642L30.3647 51.6048C31.694 50.5389 32.4069 48.8508 32.2577 47.1227C32.1085 45.3944 31.1177 43.8624 29.6268 43.0548L34.2225 37.5665C38.1547 39.997 40.5659 44.3693 40.5791 49.0928C40.5884 52.4539 39.3636 55.6944 37.15 58.1642Z" fill="white"/>
</svg>
