<svg width="200" height="100" viewBox="0 0 200 100" fill="none" xmlns="http://www.w3.org/2000/svg">
<path d="M74.8 30.5H68.5V70.6H83.5V64.8H74.8V30.5Z" fill="white"/>
<path d="M147.6 30.5L144.4 57.3L141 30.5H136.1L132.3 57.3L129.4 30.5H123.1L128.9 70.6H134.5L138.2 46.8L141.5 70.6H147.1L153.5 30.5H147.6Z" fill="white"/>
<path d="M100.699 64.4C92.8994 64.4 86.5994 57.8 86.5994 49.8C86.5994 41.8 92.8994 35.2 100.699 35.2C108.499 35.2 114.799 41.8 114.799 49.8C114.799 57.8 108.599 64.4 100.699 64.4ZM100.699 29C89.1994 29 79.8994 38.3 79.8994 49.8C79.8994 61.3 89.1994 70.6 100.699 70.6C112.199 70.6 121.499 61.3 121.499 49.8C121.499 38.3 112.199 29 100.699 29Z" fill="white"/>
<mask id="mask0" mask-type="alpha" maskUnits="userSpaceOnUse" x="46" y="29" width="19" height="42">
<path d="M46.0996 70.5V29H64.2996V70.5H46.0996Z" fill="white"/>
</mask>
<g mask="url(#mask0)">
<path d="M52.4 37.8C52.4 35.8 53.6 34.6 55.4 34.6C57.4 34.6 58.4 36.1 58.4 38.3V41.8H64V38.2C64 32.7 60.6 29 55.4 29C49.4 29 46.3 33.4 46.3 38.8C46.3 43.9 50 48.6 53.3 51.9C56.6 55.4 58.3 58 58.3 61.5C58.3 63.7 57.2 65.1 55 65.1C52.8 65.1 51.7 63.7 51.7 61.1V57.8H46V61.3C46 67 49.5 70.5 55.1 70.5C60.2 70.5 64.2 67 64.2 60.6C64.2 55.5 61.4 51.5 57.6 47.5C54.1 43.6 52.4 41.7 52.4 37.8Z" fill="white"/>
</g>
</svg>
