<svg viewBox="0 0 2141 643" fill="none" xmlns="http://www.w3.org/2000/svg">
<path d="M294.971 343.327H387.25C400.212 343.327 410.72 353.914 410.72 366.974C410.72 380.033 400.212 390.62 387.25 390.62H275.946C274.208 390.62 272.528 391.245 271.208 392.383L237.601 421.351C232.457 425.786 235.569 434.275 242.339 434.275H381.676C381.733 434.275 381.78 434.228 381.78 434.17C381.78 434.109 381.832 434.061 381.892 434.066C383.645 434.204 385.418 434.275 387.206 434.275C424.168 434.275 454.131 404.143 454.131 366.974C454.131 331.677 427.111 302.727 392.737 299.899C392.678 299.894 392.633 299.845 392.633 299.786C392.633 299.723 392.582 299.673 392.52 299.673H293.106C280.144 299.673 269.636 289.086 269.636 276.026C269.636 262.967 280.144 252.38 293.106 252.38H404.257C406.087 252.38 407.85 251.686 409.196 250.437L440.402 221.469C445.284 216.937 442.101 208.725 435.463 208.725H294.971C294.964 208.725 294.959 208.73 294.959 208.737C294.959 208.744 294.953 208.749 294.947 208.749C294.35 208.733 293.751 208.725 293.15 208.725C256.189 208.725 226.226 238.857 226.226 276.026C226.226 313.196 256.189 343.327 293.15 343.327C293.751 343.327 294.35 343.319 294.947 343.304C294.953 343.303 294.959 343.309 294.959 343.315C294.959 343.322 294.964 343.327 294.971 343.327Z" fill="white"/>
<path d="M832.441 208.725C828.407 208.725 825.136 212.013 825.136 216.069V426.931C825.136 430.987 828.407 434.275 832.441 434.275H1001.42C1003.43 434.275 1005.36 433.435 1006.74 431.954L1027.89 409.273C1032.27 404.584 1028.96 396.907 1022.57 396.907H875.029C870.995 396.907 867.725 393.62 867.725 389.564V216.069C867.725 212.013 864.455 208.725 860.421 208.725H832.441Z" fill="white"/>
<path fill-rule="evenodd" clip-rule="evenodd" d="M561.8 208.725C561.79 208.725 561.781 208.734 561.781 208.745C561.781 208.756 561.772 208.764 561.762 208.765C540.165 209.7 522.822 227.08 521.888 248.723C521.888 248.733 521.879 248.742 521.869 248.742C521.863 248.742 521.857 248.745 521.854 248.749C521.851 248.752 521.849 248.757 521.849 248.762V390.601C521.849 390.611 521.857 390.62 521.868 390.62C521.879 390.62 521.887 390.629 521.887 390.64C521.862 391.236 521.849 391.836 521.849 392.439C521.849 414.928 539.556 433.273 561.762 434.235C561.772 434.236 561.781 434.244 561.781 434.255L561.783 434.264L561.788 434.27C561.791 434.273 561.796 434.275 561.8 434.275H715.126C715.136 434.275 715.145 434.266 715.145 434.255L715.149 434.244L715.156 434.237L715.164 434.235C737.37 433.273 755.077 414.928 755.077 392.439C755.077 391.836 755.064 391.236 755.039 390.64C755.039 390.629 755.047 390.62 755.058 390.62C755.069 390.62 755.077 390.611 755.077 390.601V248.762C755.077 248.751 755.068 248.742 755.057 248.742C755.047 248.742 755.038 248.733 755.038 248.723C754.104 227.08 736.761 209.7 715.164 208.765C715.154 208.764 715.145 208.756 715.145 208.745C715.145 208.734 715.136 208.725 715.126 208.725H561.8ZM590.381 248.742L590.371 248.747L590.368 248.754C590.368 248.761 590.363 248.767 590.357 248.767C576.858 249.355 566.019 260.288 565.436 273.902C565.436 273.909 565.43 273.914 565.423 273.914C565.417 273.914 565.411 273.919 565.411 273.926V363.148C565.411 363.154 565.416 363.16 565.423 363.16C565.43 363.16 565.435 363.165 565.435 363.172C565.419 363.547 565.411 363.925 565.411 364.304C565.411 378.45 576.478 389.99 590.357 390.595C590.363 390.595 590.368 390.601 590.368 390.607L590.371 390.614L590.375 390.618L590.381 390.62H686.546L686.551 390.619L686.556 390.614L686.558 390.607C686.558 390.601 686.563 390.595 686.57 390.595C700.448 389.99 711.515 378.45 711.515 364.304C711.515 363.925 711.507 363.547 711.492 363.172L711.492 363.169L711.493 363.166L711.503 363.16C711.51 363.16 711.515 363.154 711.515 363.148V273.926C711.515 273.919 711.51 273.914 711.503 273.914C711.496 273.914 711.491 273.909 711.491 273.902C710.907 260.288 700.068 249.355 686.57 248.767C686.563 248.767 686.558 248.761 686.558 248.754L686.556 248.748L686.552 248.744L686.546 248.742H590.381Z" fill="white"/>
<path fill-rule="evenodd" clip-rule="evenodd" d="M1273.6 426.931C1273.6 430.987 1276.85 434.275 1280.85 434.275H1309.51C1313.51 434.275 1316.75 430.987 1316.75 426.931V252.399C1316.75 252.388 1316.74 252.38 1316.73 252.38L1316.72 252.378L1316.72 252.375C1316.72 252.371 1316.71 252.366 1316.71 252.36C1316.74 251.763 1316.75 251.164 1316.75 250.561C1316.75 228.071 1299.21 209.727 1277.22 208.765C1277.21 208.764 1277.2 208.756 1277.2 208.745C1277.2 208.734 1277.19 208.725 1277.18 208.725H1129.98C1129.97 208.725 1129.96 208.734 1129.96 208.744C1129.96 208.755 1129.96 208.764 1129.95 208.763C1129.36 208.738 1128.76 208.725 1128.17 208.725C1105.33 208.725 1086.82 227.456 1086.82 250.561C1086.82 251.164 1086.83 251.763 1086.86 252.36C1086.86 252.371 1086.85 252.38 1086.84 252.38C1086.83 252.38 1086.82 252.388 1086.82 252.399V426.931C1086.82 430.987 1090.06 434.275 1094.06 434.275H1122.72C1126.72 434.275 1129.96 430.987 1129.96 426.931V354.309C1129.96 350.253 1133.21 346.965 1137.21 346.965H1266.36C1270.36 346.965 1273.6 350.253 1273.6 354.309V426.931ZM1129.97 306.881V270.569C1129.97 256.505 1141.23 245.104 1155.13 245.104H1248.44C1262.34 245.104 1273.6 256.505 1273.6 270.569V306.881C1273.6 310.936 1270.36 314.224 1266.36 314.224H1137.21C1133.21 314.224 1129.97 310.936 1129.97 306.881Z" fill="white"/>
<path fill-rule="evenodd" clip-rule="evenodd" d="M1878.53 434.275C1874.49 434.275 1871.21 430.987 1871.21 426.931V354.309C1871.21 350.253 1867.94 346.965 1863.9 346.965H1733.32C1729.28 346.965 1726.01 350.253 1726.01 354.309V426.931C1726.01 430.987 1722.73 434.275 1718.69 434.275H1689.76C1685.72 434.275 1682.44 430.987 1682.44 426.931V252.399L1682.44 252.394L1682.45 252.388C1682.45 252.383 1682.46 252.38 1682.46 252.38C1682.47 252.38 1682.48 252.371 1682.48 252.36C1682.46 251.763 1682.44 251.164 1682.44 250.561C1682.44 227.456 1701.13 208.725 1724.19 208.725C1724.79 208.725 1725.39 208.738 1725.99 208.763C1726 208.764 1726.01 208.755 1726.01 208.744C1726.01 208.734 1726.01 208.725 1726.02 208.725L1874.82 208.725C1874.83 208.725 1874.84 208.734 1874.84 208.745C1874.84 208.756 1874.85 208.764 1874.86 208.765C1897.07 209.727 1914.77 228.071 1914.77 250.561C1914.77 251.164 1914.76 251.763 1914.74 252.36C1914.74 252.371 1914.74 252.38 1914.76 252.38C1914.76 252.38 1914.77 252.382 1914.77 252.386C1914.77 252.389 1914.77 252.394 1914.77 252.399V426.931C1914.77 430.987 1911.5 434.275 1907.46 434.275H1878.53ZM1726.01 270.569V306.881C1726.01 310.936 1729.28 314.224 1733.32 314.224H1863.9C1867.94 314.224 1871.21 310.936 1871.21 306.881V270.569C1871.21 256.505 1859.84 245.104 1845.8 245.104H1751.42C1737.38 245.104 1726.01 256.505 1726.01 270.569Z" fill="white"/>
<path d="M1424.62 208.725C1426.74 208.725 1428.76 209.667 1430.13 211.304L1558.66 364.516C1563.03 369.71 1571.41 366.578 1571.41 359.751V216.069C1571.41 212.013 1574.66 208.725 1578.66 208.725H1607.32C1611.32 208.725 1614.56 212.013 1614.56 216.069V426.931C1614.56 430.987 1611.32 434.275 1607.32 434.275H1571.68C1571.53 434.275 1571.41 434.152 1571.41 434C1571.41 433.934 1571.39 433.87 1571.35 433.82L1440.66 281.677C1436.26 276.566 1427.96 279.722 1427.96 286.507V426.931C1427.96 430.987 1424.72 434.275 1420.72 434.275H1391.88C1387.87 434.275 1384.63 430.987 1384.63 426.931V216.069C1384.63 212.013 1387.87 208.725 1391.88 208.725H1424.62Z" fill="white"/>
</svg>
