<svg width="123" height="30" viewBox="0 0 123 30" fill="none" xmlns="http://www.w3.org/2000/svg">
<path d="M56.3965 21.9145C56.3965 26.636 56.3262 27.0907 54.6392 27.3705V27.7202C55.4124 27.6852 56.9236 27.6503 58.224 27.6503C59.4892 27.6503 61.0707 27.6852 61.8087 27.7202V27.3705C60.1921 27.1257 60.0515 26.671 60.0515 22.544V7.40026C60.0515 3.27331 60.1921 2.81865 61.8087 2.53886V2.18912C61.0707 2.25907 59.454 2.25907 58.224 2.25907C56.9236 2.25907 55.4124 2.22409 54.6392 2.18912V2.53886C56.2559 2.81865 56.3965 3.23834 56.3965 7.40026V12.4016C55.4827 12.4365 53.8661 12.4365 49.8948 12.4365C47.1886 12.4365 45.3611 12.4016 44.4122 12.4016V7.40026C44.4122 3.27331 44.5528 2.81865 46.1695 2.53886V2.18912C45.4314 2.22409 43.8499 2.25907 42.5847 2.25907C41.2844 2.25907 39.7732 2.22409 39 2.18912V2.53886C40.6166 2.81865 40.7572 3.23834 40.7572 7.40026V22.544C40.7572 26.671 40.6166 27.1257 39 27.3705V27.7202C39.7732 27.6852 41.3195 27.6503 42.5847 27.6503C43.8499 27.6503 45.4314 27.6852 46.1695 27.7202V27.3705C44.5528 27.1257 44.4122 26.671 44.4122 22.614V17.0181C45.7829 17.0181 47.7158 16.9832 49.8948 16.9832C52.9523 16.9832 54.9907 17.0181 56.3965 17.0181V21.9145ZM49.8948 15.7591C47.1886 15.7591 45.3611 15.7241 44.4122 15.7241V13.6956C45.7829 13.6956 47.7158 13.6606 49.8948 13.6606C52.9523 13.6606 54.9907 13.6956 56.3965 13.6956V15.7241C55.4827 15.7591 53.8661 15.7591 49.8948 15.7591Z" fill="currentColor"/>
<path d="M77.9098 24.3627C76.3986 25.7966 74.9928 26.2863 73.4816 26.2863C69.8968 26.2863 67.2962 23.5583 67.0502 18.9067H78.0152C78.1206 18.4171 78.1558 17.8925 78.1558 17.4378C78.1558 13.171 74.8873 10.8627 71.4081 10.8627C67.1556 10.8627 63.4654 14.3601 63.4654 19.4313C63.4654 24.2578 66.8393 28 71.7946 28C74.6413 28 76.6797 26.7409 78.1558 24.6775L77.9098 24.3627ZM67.0502 17.9974C67.1204 14.6399 68.6668 11.5622 71.2323 11.5622C73.4816 11.5622 74.5359 13.9404 74.5359 16.7034C74.5359 17.193 74.5008 17.6477 74.4656 17.9974H67.0502Z" fill="currentColor"/>
<path d="M85.5207 27.3705C84.4664 27.1606 84.0095 26.9858 84.0095 24.1878V1C82.7794 1.55958 81.1277 1.90932 79.6165 1.9443V2.29404C80.6708 2.57383 80.7059 3.09845 80.7059 4.81218V24.1878C80.7059 26.9858 80.2491 27.1606 79.1947 27.3705V27.7202C79.9679 27.6852 81.0574 27.6503 82.3577 27.6503C83.6581 27.6503 84.7475 27.6852 85.5207 27.7202V27.3705Z" fill="currentColor"/>
<path d="M92.8741 27.3705C91.8198 27.1606 91.3629 26.9858 91.3629 24.1878V10.9676C90.168 11.5272 88.5162 11.842 86.9699 11.8769V12.2267C88.0242 12.5065 88.0593 13.0661 88.0593 14.7448V24.1878C88.0593 26.9858 87.6025 27.1606 86.5481 27.3705V27.7202C87.3213 27.6852 88.4108 27.6503 89.7111 27.6503C91.0115 27.6503 92.1009 27.6852 92.8741 27.7202V27.3705ZM89.6057 10.2681C89.7111 8.44948 90.6952 7.29534 92.3821 7.15544V7.05052C90.6952 6.91062 89.7111 5.7215 89.6057 3.90285H89.5003C89.3948 5.7215 88.4108 6.91062 86.7239 7.05052V7.15544C88.4108 7.33031 89.3948 8.44948 89.5003 10.2681H89.6057Z" fill="currentColor"/>
<path d="M111.022 19.3964C111.022 14.3951 107.086 10.8627 102.376 10.8627C97.7021 10.8627 93.6956 14.3251 93.6956 19.5013C93.6956 24.6075 97.5615 27.8601 102.306 27.8601C107.296 27.8601 111.022 24.2927 111.022 19.3964ZM102.306 27.1606C98.4401 27.1606 97.5966 23.978 97.5966 19.4663C97.5966 15.2345 98.3347 11.5622 102.376 11.5622C106.137 11.5622 107.121 14.7448 107.121 19.5013C107.121 23.6982 106.348 27.1606 102.306 27.1606Z" fill="currentColor"/>
<path d="M122.262 15.2345C122.227 14.1153 122.192 13.2409 122.192 12.6464C122.192 12.0518 122.227 11.7021 122.297 11.3523C120.786 11.2124 119.38 10.8627 117.939 10.8627C114.811 10.8627 112.316 12.5065 112.316 15.5492C112.316 20.8303 119.907 19.6762 119.907 24.3627C119.907 26.1813 118.748 27.2306 116.955 27.2306C114.249 27.2306 113.054 24.8523 113.16 22.3342H112.808C112.492 23.7332 112.597 26.0415 112.386 27.1956C114.425 27.5453 115.76 27.9301 117.201 27.9301C120.224 27.9301 123 26.1813 123 22.8588C123 17.263 115.163 18.2073 115.163 14.1503C115.163 12.6813 116.182 11.5622 117.974 11.5622C120.013 11.5622 121.383 13.0311 121.911 15.2345H122.262Z" fill="currentColor"/>
<circle cx="15" cy="15" r="5.19231" fill="currentColor"/>
<path fill-rule="evenodd" clip-rule="evenodd" d="M15 30C23.2843 30 30 23.2843 30 15C30 6.71573 23.2843 0 15 0C6.71573 0 0 6.71573 0 15C0 23.2843 6.71573 30 15 30ZM15 27.6471C21.9848 27.6471 27.6471 21.9848 27.6471 15C27.6471 8.01522 21.9848 2.35294 15 2.35294C8.01522 2.35294 2.35294 8.01522 2.35294 15C2.35294 21.9848 8.01522 27.6471 15 27.6471Z" fill="currentColor"/>
<path fill-rule="evenodd" clip-rule="evenodd" d="M22.408 14.4231C22.1503 11.0665 19.6621 8.33434 16.4231 7.70609L16.4231 5.29381C20.9789 5.9566 24.5194 9.75126 24.7899 14.4231H22.408ZM15.5769 22.408L15.5769 24.7898C20.2477 24.5183 24.0412 20.9782 24.7038 16.4231H22.294C21.6657 19.6621 18.9335 22.1503 15.5769 22.408ZM13.5769 24.7042L13.5769 22.2939C10.6148 21.7194 8.28066 19.3852 7.7061 16.4231L5.29378 16.4231C5.91605 20.7006 9.29913 24.083 13.5769 24.7042ZM14.4231 7.59202C10.7796 7.87184 7.87184 10.7796 7.59203 14.4231L5.20773 14.4231C5.49474 9.46494 9.46492 5.49477 14.4231 5.20776L14.4231 7.59202Z" fill="currentColor"/>
</svg>
