<svg width="287" height="35" viewBox="0 0 287 35" fill="none" xmlns="http://www.w3.org/2000/svg">
<circle cx="14.9999" cy="15" r="5.19231" fill="currentColor"/>
<path fill-rule="evenodd" clip-rule="evenodd" d="M15 30C23.2843 30 30 23.2843 30 15C30 6.71573 23.2843 0 15 0C6.71573 0 0 6.71573 0 15C0 23.2843 6.71573 30 15 30ZM15 27.6471C21.9848 27.6471 27.6471 21.9848 27.6471 15C27.6471 8.01522 21.9848 2.35294 15 2.35294C8.01522 2.35294 2.35294 8.01522 2.35294 15C2.35294 21.9848 8.01522 27.6471 15 27.6471Z" fill="currentColor"/>
<path fill-rule="evenodd" clip-rule="evenodd" d="M22.4078 14.4231C22.1501 11.0665 19.6619 8.33434 16.4229 7.70609L16.4229 5.29381C20.9787 5.9566 24.5192 9.75126 24.7897 14.4231H22.4078ZM15.5767 22.408L15.5767 24.7898C20.2475 24.5183 24.041 20.9782 24.7036 16.4231H22.2938C21.6655 19.6621 18.9333 22.1503 15.5767 22.408ZM13.5767 24.7042L13.5767 22.2939C10.6146 21.7194 8.28045 19.3852 7.70589 16.4231L5.29357 16.4231C5.91584 20.7006 9.29892 24.083 13.5767 24.7042ZM14.4229 7.59202C10.7794 7.87184 7.87163 10.7796 7.59182 14.4231L5.20752 14.4231C5.49453 9.46494 9.46471 5.49477 14.4229 5.20776L14.4229 7.59202Z" fill="currentColor"/>
<path d="M62.321 26.9537C60.7389 26.714 60.6013 26.2689 60.6013 22.2286V7.40282C60.6013 3.36254 60.7389 2.91742 62.321 2.6435V2.30111C61.5987 2.36959 60.0167 2.36959 58.8129 2.36959C57.5404 2.36959 56.0615 2.33535 55.3048 2.30111V2.6435C56.8869 2.91742 57.0245 3.3283 57.0245 7.40282V13.2578C54.9265 13.292 52.7942 13.292 50.6962 13.292C48.8734 13.292 47.0849 13.292 45.2965 13.2578V7.40282C45.2965 3.36254 45.4341 2.91742 47.0161 2.6435V2.30111C46.2939 2.33535 44.7462 2.36959 43.5081 2.36959C42.2355 2.36959 40.7566 2.33535 40 2.30111V2.6435C41.5821 2.91742 41.7196 3.3283 41.7196 7.40282V22.2286C41.7196 26.2689 41.5821 26.714 40 26.9537V27.2961C40.7566 27.2618 42.2699 27.2276 43.5081 27.2276C44.7462 27.2276 46.2939 27.2618 47.0161 27.2961V26.9537C45.4341 26.714 45.2965 26.2689 45.2965 22.2971V14.5247C47.1537 14.4904 49.0453 14.4904 50.9369 14.4904C52.9661 14.4904 54.9953 14.4904 57.0245 14.5247V21.6123C57.0245 26.2346 56.9557 26.6798 55.3048 26.9537V27.2961C56.0615 27.2618 57.5404 27.2276 58.8129 27.2276C60.0511 27.2276 61.5987 27.2618 62.321 27.2961V26.9537Z" fill="currentColor"/>
<path d="M78.0778 24.0091C76.5989 25.4129 75.2232 25.8922 73.7443 25.8922C70.2362 25.8922 67.6911 23.2215 67.4504 18.6677H78.1809C78.2841 18.1883 78.3185 17.6747 78.3185 17.2296C78.3185 13.0524 75.12 10.7925 71.7151 10.7925C67.5535 10.7925 63.9423 14.2165 63.9423 19.1813C63.9423 23.9063 67.244 27.57 72.0934 27.57C74.8792 27.57 76.874 26.3374 78.3185 24.3172L78.0778 24.0091ZM67.4504 17.7774C67.5191 14.4904 69.0324 11.4773 71.5431 11.4773C73.7443 11.4773 74.776 13.8056 74.776 16.5106C74.776 16.9899 74.7416 17.435 74.7073 17.7774H67.4504Z" fill="currentColor"/>
<path d="M85.526 26.9537C84.4942 26.7482 84.0471 26.577 84.0471 23.8379V1.13696C82.8433 1.68479 81.2269 2.02719 79.748 2.06143V2.40383C80.7797 2.67774 80.8141 3.19134 80.8141 4.86908V23.8379C80.8141 26.577 80.367 26.7482 79.3352 26.9537V27.2961C80.0919 27.2618 81.1581 27.2276 82.4306 27.2276C83.7031 27.2276 84.7693 27.2618 85.526 27.2961V26.9537Z" fill="currentColor"/>
<path d="M92.7221 26.9537C91.6904 26.7482 91.2433 26.577 91.2433 23.8379V10.8953C90.0739 11.4431 88.4574 11.7513 86.9441 11.7855V12.1279C87.9759 12.4018 88.0103 12.9496 88.0103 14.5932V23.8379C88.0103 26.577 87.5632 26.7482 86.5314 26.9537V27.2961C87.2881 27.2618 88.3542 27.2276 89.6268 27.2276C90.8993 27.2276 91.9655 27.2618 92.7221 27.2961V26.9537ZM89.5236 10.2105C89.6268 8.43001 90.5898 7.3001 92.2406 7.16314V7.06042C90.5898 6.92346 89.6268 5.75931 89.5236 3.97885H89.4204C89.3172 5.75931 88.3542 6.92346 86.7034 7.06042V7.16314C88.3542 7.33434 89.3172 8.43001 89.4204 10.2105H89.5236Z" fill="currentColor"/>
<path d="M110.482 19.147C110.482 14.2508 106.63 10.7925 102.021 10.7925C97.4469 10.7925 93.5261 14.1823 93.5261 19.2497C93.5261 24.2487 97.3093 27.433 101.952 27.433C106.836 27.433 110.482 23.9406 110.482 19.147ZM101.952 26.7482C98.1691 26.7482 97.3437 23.6324 97.3437 19.2155C97.3437 15.0725 98.0659 11.4773 102.021 11.4773C105.701 11.4773 106.664 14.5931 106.664 19.2497C106.664 23.3585 105.908 26.7482 101.952 26.7482Z" fill="currentColor"/>
<path d="M121.482 15.0725C121.447 13.9768 121.413 13.1208 121.413 12.5388C121.413 11.9567 121.447 11.6143 121.516 11.2719C120.037 11.1349 118.661 10.7925 117.251 10.7925C114.19 10.7925 111.748 12.4018 111.748 15.3807C111.748 20.5509 119.177 19.4209 119.177 24.0091C119.177 25.7895 118.042 26.8167 116.288 26.8167C113.64 26.8167 112.471 24.4884 112.574 22.0232H112.23C111.92 23.3927 112.024 25.6526 111.817 26.7825C113.812 27.1249 115.119 27.5015 116.529 27.5015C119.487 27.5015 122.204 25.7895 122.204 22.5368C122.204 17.0584 114.534 17.9829 114.534 14.0111C114.534 12.573 115.532 11.4773 117.286 11.4773C119.28 11.4773 120.622 12.9154 121.138 15.0725H121.482Z" fill="currentColor"/>
<path d="M152.71 27.3303C152.675 26.7825 152.641 26.2346 152.641 25.4471C152.641 24.0775 152.744 22.1944 152.95 20.7221H152.606C151.334 24.7281 148.238 26.6113 144.834 26.6113C140.019 26.6113 135.1 22.8449 135.1 14.9013C135.1 6.99194 139.984 3.12286 144.868 3.12286C148.101 3.12286 151.265 4.83484 152.572 8.97784H152.916C152.71 7.50554 152.606 5.69084 152.606 4.25277C152.606 3.56798 152.606 2.95166 152.641 2.43807H152.366C152.297 3.02014 152.194 3.53374 151.987 3.87613C149.511 2.74622 147.172 2.16415 144.455 2.16415C135.547 2.16415 131.008 8.49849 131.008 14.8671C131.008 21.2356 135.547 27.57 144.421 27.57C146.932 27.57 149.477 27.0564 152.056 25.858C152.228 26.2004 152.366 26.7482 152.434 27.3303H152.71Z" fill="currentColor"/>
<path d="M171.211 19.147C171.211 14.2508 167.359 10.7925 162.75 10.7925C158.176 10.7925 154.255 14.1823 154.255 19.2497C154.255 24.2487 158.038 27.433 162.681 27.433C167.565 27.433 171.211 23.9406 171.211 19.147ZM162.681 26.7482C158.898 26.7482 158.073 23.6324 158.073 19.2155C158.073 15.0725 158.795 11.4773 162.75 11.4773C166.43 11.4773 167.393 14.5931 167.393 19.2497C167.393 23.3585 166.636 26.7482 162.681 26.7482ZM162.784 22.1601C162.853 20.4139 163.816 19.3182 165.433 19.1813V19.0443C163.816 18.9073 162.853 17.8117 162.784 16.0655H162.647C162.578 17.8117 161.615 18.9073 159.999 19.0443V19.1813C161.615 19.3182 162.578 20.4139 162.647 22.1601H162.784Z" fill="currentColor"/>
<path d="M188.986 26.9537C187.954 26.7482 187.507 26.577 187.507 23.8379V16.5106C187.507 11.717 184.618 10.7925 182.348 10.7925C180.216 10.7925 178.359 11.6143 176.845 13.5317V10.7925C175.676 11.3404 174.059 11.6828 172.546 11.717V12.0594C173.578 12.3333 173.612 12.8469 173.612 14.5247V23.8379C173.612 26.577 173.165 26.7482 172.133 26.9537V27.2961C172.89 27.2618 173.956 27.2276 175.229 27.2276C176.501 27.2276 177.568 27.2618 178.324 27.2961V26.9537C177.292 26.7482 176.845 26.577 176.845 23.8379V14.422C177.911 12.7442 179.322 11.9909 181.007 11.9909C183.036 11.9909 184.274 13.1208 184.274 16.5106V23.8379C184.274 26.577 183.827 26.7482 182.795 26.9537V27.2961C183.552 27.2618 184.618 27.2276 185.891 27.2276C187.163 27.2276 188.229 27.2618 188.986 27.2961V26.9537Z" fill="currentColor"/>
<path d="M195.799 34.6576C194.767 34.4522 194.32 34.281 194.32 31.5418V12.5388C195.352 12.5388 196.383 12.5388 197.415 12.6072V10.8953C197.415 10.8953 196.762 10.9637 195.902 10.9637H194.32V9.90231C194.32 7.33434 193.322 6.10171 193.322 4.56093C193.322 3.60221 193.701 2.6435 194.767 2.6435C195.833 2.6435 196.624 3.63646 197.174 4.38973L199.238 2.43807C198.722 1.51359 197.931 1 196.624 1C195.042 1 193.598 1.75327 192.6 3.05438C191.224 4.86908 191.087 7.26586 191.087 10.9637L189.78 12.2649V12.5388H191.087V31.5418C191.087 34.281 190.64 34.4522 189.608 34.6576V35C190.227 34.9658 190.949 34.9315 192.015 34.9315H193.219C194.148 34.9315 195.145 34.9658 195.799 35V34.6576Z" fill="currentColor"/>
<path d="M211.545 24.0091C210.066 25.4129 208.69 25.8922 207.211 25.8922C203.703 25.8922 201.158 23.2215 200.918 18.6677H211.648C211.751 18.1883 211.786 17.6747 211.786 17.2296C211.786 13.0524 208.587 10.7925 205.182 10.7925C201.021 10.7925 197.41 14.2165 197.41 19.1813C197.41 23.9063 200.711 27.57 205.561 27.57C208.346 27.57 210.341 26.3374 211.786 24.3172L211.545 24.0091ZM200.918 17.7774C200.986 14.4904 202.5 11.4773 205.01 11.4773C207.211 11.4773 208.243 13.8056 208.243 16.5106C208.243 16.9899 208.209 17.435 208.174 17.7774H200.918Z" fill="currentColor"/>
<path d="M218.959 26.9537C217.927 26.7482 217.48 26.577 217.48 23.8379V14.9013C218.443 13.5317 220.025 12.71 220.954 12.71C221.71 12.71 222.295 13.2236 222.295 14.6274H225.459C225.459 12.0252 224.53 10.7925 222.845 10.7925C220.954 10.7925 218.924 12.3333 217.48 14.0111V10.7925C216.311 11.3404 214.694 11.6828 213.181 11.717V12.0594C214.213 12.3333 214.247 12.8469 214.247 14.5247V23.8379C214.247 26.577 213.8 26.7482 212.768 26.9537V27.2961C213.525 27.2618 214.591 27.2276 215.863 27.2276C217.136 27.2276 218.202 27.2618 218.959 27.2961V26.9537Z" fill="currentColor"/>
<path d="M238.971 24.0091C237.492 25.4129 236.116 25.8922 234.637 25.8922C231.129 25.8922 228.584 23.2215 228.343 18.6677H239.074C239.177 18.1883 239.211 17.6747 239.211 17.2296C239.211 13.0524 236.013 10.7925 232.608 10.7925C228.446 10.7925 224.835 14.2165 224.835 19.1813C224.835 23.9063 228.137 27.57 232.986 27.57C235.772 27.57 237.767 26.3374 239.211 24.3172L238.971 24.0091ZM228.343 17.7774C228.412 14.4904 229.925 11.4773 232.436 11.4773C234.637 11.4773 235.669 13.8056 235.669 16.5106C235.669 16.9899 235.634 17.435 235.6 17.7774H228.343Z" fill="currentColor"/>
<path d="M257.046 26.9537C256.014 26.7482 255.567 26.577 255.567 23.8379V16.5106C255.567 11.717 252.678 10.7925 250.408 10.7925C248.276 10.7925 246.419 11.6143 244.906 13.5317V10.7925C243.736 11.3404 242.12 11.6828 240.606 11.717V12.0594C241.638 12.3333 241.673 12.8469 241.673 14.5247V23.8379C241.673 26.577 241.225 26.7482 240.194 26.9537V27.2961C240.95 27.2618 242.017 27.2276 243.289 27.2276C244.562 27.2276 245.628 27.2618 246.384 27.2961V26.9537C245.353 26.7482 244.906 26.577 244.906 23.8379V14.422C245.972 12.7442 247.382 11.9909 249.067 11.9909C251.096 11.9909 252.334 13.1208 252.334 16.5106V23.8379C252.334 26.577 251.887 26.7482 250.855 26.9537V27.2961C251.612 27.2618 252.678 27.2276 253.951 27.2276C255.223 27.2276 256.29 27.2618 257.046 27.2961V26.9537Z" fill="currentColor"/>
<path d="M271.597 24.2145C270.394 25.5156 268.915 26.0977 267.264 26.0977C263.687 26.0977 261.211 23.29 261.211 18.4622C261.211 14.7301 262.69 11.4773 265.957 11.4773C268.124 11.4773 268.777 12.9154 268.88 14.7643H272.216C271.735 12.1964 269.293 10.7925 266.198 10.7925C261.279 10.7925 257.634 14.285 257.634 19.2155C257.634 23.9063 260.901 27.57 265.819 27.57C268.605 27.57 270.462 26.3716 271.838 24.4542L271.597 24.2145Z" fill="currentColor"/>
<path d="M286.759 24.0091C285.28 25.4129 283.905 25.8922 282.426 25.8922C278.918 25.8922 276.373 23.2215 276.132 18.6677H286.862C286.966 18.1883 287 17.6747 287 17.2296C287 13.0524 283.801 10.7925 280.397 10.7925C276.235 10.7925 272.624 14.2165 272.624 19.1813C272.624 23.9063 275.925 27.57 280.775 27.57C283.561 27.57 285.555 26.3374 287 24.3172L286.759 24.0091ZM276.132 17.7774C276.201 14.4904 277.714 11.4773 280.225 11.4773C282.426 11.4773 283.458 13.8056 283.458 16.5106C283.458 16.9899 283.423 17.435 283.389 17.7774H276.132Z" fill="currentColor"/>
</svg>
