<svg width="200" height="100" viewBox="0 0 200 100" fill="none" xmlns="http://www.w3.org/2000/svg">
<g clip-path="url(#clip0)">
<path d="M112.6 63.0499L102.14 37.6699C102.058 37.4387 102.014 37.1955 102.01 36.9499C101.99 36.4314 102.173 35.9255 102.52 35.5399C102.7 35.3558 102.917 35.2124 103.157 35.1192C103.397 35.0261 103.653 34.9854 103.91 34.9999C104.299 35.0054 104.676 35.1312 104.99 35.3599C105.317 35.6049 105.573 35.9329 105.73 36.3099L115.68 61.1399L125.63 36.3099C125.791 35.9317 126.05 35.6036 126.38 35.3599C126.694 35.1312 127.072 35.0054 127.46 34.9999C127.715 34.9869 127.971 35.0282 128.208 35.1213C128.446 35.2145 128.662 35.3571 128.84 35.5399C129.191 35.9239 129.378 36.43 129.36 36.9499C129.357 37.1955 129.313 37.4387 129.23 37.6699L118.77 63.0499C118.591 63.6074 118.242 64.0951 117.773 64.4447C117.303 64.7943 116.736 64.9884 116.15 64.9999H115.22C114.635 64.9884 114.068 64.7943 113.598 64.4447C113.128 64.0951 112.779 63.6074 112.6 63.0499Z" fill="white"/>
<path d="M133.81 64.2199C133.633 64.0415 133.494 63.829 133.401 63.5953C133.308 63.3615 133.264 63.1114 133.27 62.8599V37.1599C133.264 36.9025 133.308 36.6464 133.401 36.4062C133.494 36.166 133.633 35.9464 133.81 35.7599C133.984 35.5756 134.196 35.4303 134.43 35.3338C134.664 35.2373 134.917 35.1916 135.17 35.1999H152.17C152.41 35.1941 152.648 35.2392 152.868 35.3323C153.089 35.4254 153.287 35.5644 153.45 35.7399C153.624 35.9044 153.761 36.103 153.854 36.3233C153.947 36.5437 153.994 36.7808 153.99 37.0199C153.997 37.2566 153.952 37.4919 153.859 37.7095C153.766 37.9271 153.626 38.1217 153.45 38.2799C153.28 38.4478 153.079 38.5803 152.857 38.6696C152.636 38.7588 152.399 38.8032 152.16 38.7999H137.13V48.1599H150.65C150.89 48.1541 151.128 48.1992 151.348 48.2923C151.569 48.3854 151.767 48.5244 151.93 48.6999C152.102 48.8658 152.238 49.0648 152.331 49.2847C152.424 49.5047 152.471 49.7412 152.47 49.9799C152.477 50.2166 152.432 50.4519 152.339 50.6695C152.246 50.8871 152.106 51.0817 151.93 51.2399C151.762 51.4066 151.562 51.5384 151.342 51.6276C151.122 51.7169 150.887 51.7618 150.65 51.7599H137.13V61.1599H152.16C152.401 61.1527 152.641 61.1971 152.864 61.2902C153.086 61.3834 153.286 61.5231 153.45 61.6999C153.625 61.8655 153.763 62.0658 153.856 62.2879C153.949 62.5101 153.995 62.7492 153.99 62.9899C153.997 63.2266 153.952 63.4619 153.859 63.6795C153.766 63.8971 153.626 64.0917 153.45 64.2499C153.28 64.416 153.078 64.5466 152.856 64.6342C152.635 64.7217 152.398 64.7645 152.16 64.7599H135.17C134.917 64.7783 134.664 64.7393 134.428 64.6458C134.193 64.5523 133.981 64.4067 133.81 64.2199Z" fill="white"/>
<path d="M104.51 62.33L94.0401 36.95C93.8616 36.3941 93.5143 35.9076 93.0465 35.5581C92.5788 35.2087 92.0138 35.0136 91.4301 35H90.5101C89.9246 35.0115 89.3574 35.2057 88.8877 35.5553C88.418 35.9049 88.0692 36.3925 87.8901 36.95L83.3401 48.01H79.8901C79.394 48.0152 78.9199 48.2153 78.5701 48.567C78.2202 48.9188 78.0227 49.3939 78.0201 49.89V49.91C78.0227 50.4061 78.2202 50.8812 78.5701 51.233C78.9199 51.5847 79.394 51.7848 79.8901 51.79H81.7401L77.4001 62.33C77.3174 62.5612 77.2735 62.8045 77.2701 63.05C77.2497 63.5685 77.4328 64.0745 77.7801 64.46C77.9597 64.6441 78.1768 64.7876 78.4165 64.8807C78.6563 64.9739 78.9133 65.0145 79.1701 65C79.5586 64.9945 79.9359 64.8687 80.2501 64.64C80.5771 64.395 80.8326 64.067 80.9901 63.69L85.7801 51.79H89.0701C89.5661 51.7848 90.0403 51.5847 90.3901 51.233C90.74 50.8812 90.9375 50.4061 90.9401 49.91V49.86C90.9375 49.3639 90.74 48.8888 90.3901 48.537C90.0403 48.1853 89.5661 47.9852 89.0701 47.98H87.2901L90.9701 38.86L100.92 63.69C101.078 64.067 101.333 64.395 101.66 64.64C101.974 64.8687 102.352 64.9945 102.74 65C102.999 65.016 103.257 64.976 103.499 64.8828C103.741 64.7896 103.959 64.6454 104.14 64.46C104.484 64.0729 104.663 63.5671 104.64 63.05C104.653 62.8041 104.612 62.5585 104.52 62.33H104.51Z" fill="white"/>
<path d="M73.2501 62.33L62.7901 36.95C62.6104 36.3909 62.2601 35.9022 61.7884 35.5524C61.3167 35.2026 60.7472 35.0095 60.1601 35H59.2401C58.6546 35.0115 58.0874 35.2057 57.6177 35.5553C57.1479 35.9049 56.7992 36.3925 56.6201 36.95L52.0701 48.01H48.6201C48.124 48.0152 47.6499 48.2153 47.3 48.567C46.9502 48.9188 46.7527 49.3939 46.7501 49.89V49.91C46.7527 50.4061 46.9502 50.8812 47.3 51.233C47.6499 51.5847 48.124 51.7848 48.6201 51.79H50.4701L46.1301 62.33C46.0474 62.5612 46.0035 62.8045 46.0001 63.05C45.9797 63.5685 46.1627 64.0745 46.5101 64.46C46.6897 64.6441 46.9067 64.7876 47.1465 64.8807C47.3863 64.9739 47.6432 65.0145 47.9001 65C48.2886 64.9945 48.6659 64.8687 48.9801 64.64C49.3071 64.395 49.5626 64.067 49.7201 63.69L54.5101 51.79H57.8201C58.3179 51.7874 58.7945 51.5885 59.1465 51.2365C59.4985 50.8845 59.6974 50.4078 59.7001 49.91V49.86C59.6974 49.3622 59.4985 48.8855 59.1465 48.5335C58.7945 48.1815 58.3179 47.9826 57.8201 47.98H56.0501L59.7001 38.86L69.6501 63.69C69.8076 64.067 70.0631 64.395 70.3901 64.64C70.7042 64.8687 71.0815 64.9945 71.4701 65C71.7285 65.016 71.9874 64.976 72.229 64.8828C72.4706 64.7896 72.6893 64.6454 72.8701 64.46C73.2138 64.0729 73.3931 63.5671 73.3701 63.05C73.3827 62.8041 73.3417 62.5585 73.2501 62.33Z" fill="white"/>
</g>
<defs>
<clipPath id="clip0">
<rect width="107.98" height="30" fill="white" transform="translate(46 35)"/>
</clipPath>
</defs>
</svg>
