<svg width="200" height="100" viewBox="0 0 200 100" fill="none" xmlns="http://www.w3.org/2000/svg">
<path fill-rule="evenodd" clip-rule="evenodd" d="M181.422 52.3704C181.422 50.1731 180.127 48.5189 178.082 48.5189C176.038 48.5189 174.741 50.1731 174.741 52.3704C174.741 54.5675 176.038 56.2217 178.082 56.2217C180.131 56.2259 181.422 54.5716 181.422 52.3704ZM181.322 47.0445V41.2883C181.322 40.9082 181.577 40.5782 181.944 40.4821L185 39.6676V59.1456H181.61V57.4916C180.758 58.7321 179.227 59.4589 177.312 59.4589C173.379 59.4589 171.076 56.3052 171.076 52.3745C171.076 48.4438 173.379 45.2901 177.312 45.2901C179.223 45.2859 180.624 46.1129 181.322 47.0445ZM160.467 45.595V47.2492C161.089 46.0837 162.486 45.2817 164.504 45.2817C167.766 45.2817 169.499 47.4538 169.499 50.6869V59.1456H165.826V51.1047C165.826 49.5256 165.153 48.4396 163.522 48.4396C161.737 48.4396 160.755 49.5759 160.755 51.3887V59.1456H157.081V45.595H160.467ZM148.49 59.4589C144.531 59.4589 142.328 57.7505 142.328 53.3561V45.595H146.003V53.4063C146.003 55.2943 146.855 56.1715 148.486 56.1715C150.116 56.1715 150.969 55.2901 150.969 53.4063V45.595H154.643V53.3519C154.652 57.7505 152.449 59.4589 148.49 59.4589ZM130.197 52.3704C130.197 54.8014 131.698 56.2217 133.637 56.2217C135.577 56.2217 137.078 54.7972 137.078 52.3704C137.078 49.9434 135.577 48.5189 133.637 48.5189C131.702 48.5189 130.197 49.9392 130.197 52.3704ZM133.641 59.4589C129.294 59.4589 126.522 56.2259 126.522 52.3745C126.522 48.5232 129.29 45.2901 133.641 45.2901C137.989 45.2901 140.761 48.5232 140.761 52.3745C140.756 56.2259 137.989 59.4589 133.641 59.4589ZM115.324 52.3704C115.324 54.5675 116.619 56.2217 118.664 56.2217C120.708 56.2217 122.004 54.5675 122.004 52.3704C122.004 50.1731 120.708 48.5189 118.664 48.5189C116.619 48.5189 115.324 50.1731 115.324 52.3704ZM115.428 57.7003V63.3353C115.428 63.7155 115.173 64.0454 114.805 64.1414L111.754 64.9436V45.595H115.144V47.2492C115.996 46.0086 117.526 45.2817 119.441 45.2817C123.375 45.2817 125.678 48.4354 125.678 52.3662C125.678 56.2968 123.375 59.4505 119.441 59.4505C117.522 59.4589 116.126 58.6319 115.428 57.7003ZM100.839 51.4388V59.1456H97.1644V51.1047C97.1644 49.6051 96.6209 48.4396 94.9905 48.4396C93.2809 48.4396 92.3486 49.5508 92.3486 51.3637V59.1498H88.6742V45.595H92.0644V47.2492C92.6872 46.0837 94.0334 45.2817 95.9729 45.2817C97.8122 45.2817 99.1291 46.0044 99.9067 47.1948C101.098 45.8748 102.469 45.2817 104.409 45.2817C107.669 45.2817 109.325 47.5332 109.325 50.6869V59.1456H105.65V51.1047C105.65 49.6051 105.107 48.4396 103.476 48.4396C101.742 48.4396 100.839 49.5508 100.839 51.4388ZM76.4134 52.3704C76.4134 54.8014 77.9142 56.2217 79.8537 56.2217C81.7934 56.2217 83.2942 54.7972 83.2942 52.3704C83.2942 49.9434 81.7934 48.5189 79.8537 48.5189C77.9142 48.5189 76.4134 49.9392 76.4134 52.3704ZM79.8537 59.4589C75.5062 59.4589 72.7348 56.2259 72.7348 52.3745C72.7348 48.5232 75.5021 45.2901 79.8537 45.2901C84.2054 45.2901 86.9728 48.5232 86.9728 52.3745C86.9728 56.2259 84.2012 59.4589 79.8537 59.4589ZM53.6685 49.9392C53.6685 44.1998 57.6273 40.3944 62.9069 40.3944C67.4885 40.3944 71.1128 43.1096 71.8109 47.5833H67.7727C67.2293 45.2817 65.3649 43.9868 62.9069 43.9868C59.5418 43.9868 57.6523 46.3135 57.6523 49.935C57.6523 53.5566 59.5418 55.8833 62.9069 55.8833C65.3649 55.8833 67.2293 54.5883 67.7727 52.2867H71.8109C71.1128 56.7605 67.4885 59.4756 62.9069 59.4756C57.6273 59.4839 53.6685 55.6827 53.6685 49.9392Z" fill="white"/>
<path fill-rule="evenodd" clip-rule="evenodd" d="M17.5091 60.2837C16.5727 59.7113 16 58.6922 16 57.5977V51.4865C16 51.2526 16.0627 51.0272 16.1798 50.8266C16.5434 50.2 17.3502 49.9871 17.9773 50.3546L31.7806 58.3955C32.5874 58.8676 33.0849 59.7282 33.0849 60.6637V66.9963C33.0849 67.2845 33.0053 67.5728 32.8549 67.8192C32.3993 68.5628 31.4294 68.7967 30.6853 68.3413L17.5091 60.2837ZM38.0844 48.6795C38.8912 49.1515 39.3887 50.0121 39.3887 50.9477V63.7966C39.3887 64.1768 39.1838 64.5276 38.8536 64.7114L35.8312 66.4116C35.7936 66.4325 35.7518 66.4492 35.7101 66.4617V59.3271C35.7101 58.4039 35.2251 57.5476 34.4309 57.0714L22.308 49.8241V41.7706C22.308 41.5366 22.3708 41.3111 22.4878 41.1106C22.8515 40.484 23.6583 40.271 24.2853 40.6385L38.0844 48.6795ZM44.125 39.1891C44.9359 39.6569 45.4334 40.5258 45.4334 41.4614V60.2294C45.4334 60.6136 45.2202 60.9687 44.8816 61.1525L42.018 62.698V49.6319C42.018 48.7089 41.5332 47.8566 40.7432 47.3804L28.3527 39.9535V32.3135C28.3527 32.0796 28.4154 31.854 28.5283 31.6535C28.892 31.0269 29.6988 30.8139 30.3258 31.1773L44.125 39.1891Z" fill="#00D395"/>
</svg>
