<svg width="200" height="100" viewBox="0 0 200 100" fill="none" xmlns="http://www.w3.org/2000/svg">
<path d="M80.3097 69.6968V73.4411H87.8226V77.161H80.3097V82.9963H75.4956V65.9768H88.8437V69.6968H80.3097Z" fill="white"/>
<path d="M95.8446 69.7939H90.6172V65.9767H105.862V69.7939H100.659V82.9962H95.8446V69.7939Z" fill="white"/>
<path d="M118.651 82.9962L115.126 77.7201L111.649 82.9962H106.154L112.354 74.3892L106.422 65.9767H111.844L115.248 70.888L118.603 65.9767H123.806L117.873 74.1947L124.195 82.9962H118.651Z" fill="white"/>
<path d="M100.56 49.0024H89.3237V60.2385H100.56V49.0024Z" fill="#ABEBF4"/>
<path d="M110.518 33.5203H89.3237V44.7188H110.518H114.351V33.5203H110.518Z" fill="#5FCADE"/>
<path d="M124.122 18H89.3237V29.2361H124.122V18Z" fill="#02A6C2"/>
<path d="M86.7312 33.5203H75.4951V44.7563H86.7312V33.5203Z" fill="#5FCADE"/>
</svg>
