<svg width="200" height="100" viewBox="0 0 200 100" fill="none" xmlns="http://www.w3.org/2000/svg">
<path d="M31.3926 55.3333V50H26.0592V44.6667H36.7259V55.3333H31.3926ZM36.7259 39.3333H26.0592H20.7259V55.3333H15.3926V34H36.7259V39.3333Z" fill="#87ABC5"/>
<path d="M36.7261 57.4667V60.6667H20.7261V55.3333H31.3927V52.9333H36.7261V57.4667Z" fill="#87ABC5"/>
<path d="M42.0591 39.3334V44.6667H36.7257V39.3334H42.0591Z" fill="white"/>
<path d="M20.7261 55.3334V60.6667H15.3927V55.3334H20.7261Z" fill="white"/>
<path d="M20.7261 60.6666V66H15.3927V60.6666H20.7261Z" fill="#F07F53"/>
<path fill-rule="evenodd" clip-rule="evenodd" d="M149.914 40.7246H147.517V53.3126H147.676H149.914H156.154V50.8281H149.914V40.7246Z" fill="white"/>
<path fill-rule="evenodd" clip-rule="evenodd" d="M125.894 49.2387L119.781 40.7246H117.618H117.285V53.3126H119.781V44.8907L125.894 53.3126H128.058H128.39V40.7246H125.894V49.2387Z" fill="white"/>
<path fill-rule="evenodd" clip-rule="evenodd" d="M109.441 48.1156C109.441 49.9971 108.127 51.0231 106.649 51.0231C105.334 51.0231 104.02 49.9971 104.02 48.1156V40.5897H101.556V48.1156C101.556 51.8782 104.349 53.5887 106.649 53.5887C108.949 53.5887 111.906 51.8782 111.906 48.1156V40.5897H109.441V48.1156Z" fill="white"/>
<path fill-rule="evenodd" clip-rule="evenodd" d="M136.719 40.5897H132.523V43.1553H136.719V53.5887H139.183V43.1553H143.379V40.5897H139.183H136.719Z" fill="white"/>
<path fill-rule="evenodd" clip-rule="evenodd" d="M90.7644 49.5016L92.4279 45.9243L94.1079 49.5016H90.7644ZM86.2354 53.589H88.8637L89.799 51.5776H95.0828L96.0276 53.589H98.6559L92.3635 40.3716L86.2354 53.589Z" fill="white"/>
<mask id="mask0" mask-type="alpha" maskUnits="userSpaceOnUse" x="173" y="40" width="12" height="14">
<path d="M173.449 40.5897H184.305V53.5888H173.449V40.5897Z" fill="white"/>
</mask>
<g mask="url(#mask0)">
<path fill-rule="evenodd" clip-rule="evenodd" d="M184.306 40.5897H180.109H177.645H173.449V43.1553H177.645V53.5888H180.109V43.1553H184.306V40.5897Z" fill="white"/>
</g>
<path fill-rule="evenodd" clip-rule="evenodd" d="M164.866 40.6023C164.85 40.5986 164.836 40.5898 164.819 40.5898C160.991 40.5898 159.069 44.3525 159.069 47.0894C159.069 49.8618 161.012 53.254 164.326 53.5634V53.5889H169.597V51.023H164.983C163.499 51.023 162.38 49.8457 161.923 48.4576H169.326V45.892H161.852C162.224 44.4308 163.264 43.1555 164.819 43.1555H169.597V40.5898H164.869L164.866 40.6023Z" fill="white"/>
<mask id="mask1" mask-type="alpha" maskUnits="userSpaceOnUse" x="71" y="40" width="12" height="14">
<path d="M71.0117 40.2366H82.9906V53.942H71.0117V40.2366Z" fill="white"/>
</mask>
<g mask="url(#mask1)">
<path fill-rule="evenodd" clip-rule="evenodd" d="M77.3074 48.4008H80.5694V50.6002C80.0432 51.0571 79.0859 51.5907 77.4868 51.5907C75.4455 51.5907 73.5158 49.5162 73.5158 47.3219C73.5158 44.0668 75.7644 42.681 78.0041 42.681C80.5621 42.681 82.2804 44.7715 82.2975 44.7936L82.418 44.949V41.9491L82.4015 41.9293C82.3868 41.9118 82.0359 41.4978 81.2936 41.0792C80.6112 40.6946 79.4558 40.2366 77.8252 40.2366C75.1909 40.2366 71.0117 42.1601 71.0117 47.3219C71.0117 51.4109 74.5922 53.9421 77.9096 53.9421C81.2482 53.9421 82.9625 51.3372 82.9793 51.3106L82.9907 51.2928V46.243H77.3074V48.4008Z" fill="white"/>
</g>
</svg>
