<svg width="200" height="100" viewBox="0 0 200 100" fill="none" xmlns="http://www.w3.org/2000/svg">
<g clip-path="url(#clip0)">
<path d="M50.625 48.2456C52.0952 48.0851 53.5315 47.694 54.882 47.0865C55.6379 46.7053 56.3415 46.2267 56.9753 45.6628L57 45.6416C57 45.6416 56.4915 45.8987 55.857 46.1558C55.2864 46.3464 54.6937 46.4618 54.0938 46.499C52.8585 46.645 51.5438 46.7591 50.4578 46.0272C50.8068 45.8691 51.1392 45.6761 51.45 45.4511C52.7332 44.7109 54.0052 43.9109 54.648 42.4948C54.1635 42.8141 53.6535 43.0923 53.1233 43.3265C52.3743 43.6036 51.6109 43.8393 50.8365 44.0327C51.3749 43.4088 51.8636 42.7431 52.2982 42.0419C52.6138 41.3741 52.8893 40.6878 53.1233 39.9868C52.9965 40.2431 52.6785 40.3724 52.1707 40.8858C51.6179 41.3649 50.9673 41.7157 50.265 41.9133C50.714 41.1614 51.0963 40.371 51.4072 39.5513C51.5497 39.0606 51.6465 38.43 51.7898 37.996C51.726 38.1888 51.2182 38.6379 50.7097 39.3448C50.2987 39.8678 49.83 40.342 49.3125 40.758V39.9263C49.2957 39.7163 49.2293 39.5134 49.1188 39.3347C49.0083 39.1559 48.8568 39.0064 48.6772 38.8988C48.1057 38.6417 47.4067 39.5407 47.4067 39.5407C47.4067 39.5407 48.2318 39.6049 48.2962 39.9263C48.3608 40.2476 47.5973 40.9538 47.5973 40.9538L47.8515 41.5315C47.8515 41.5315 47.8515 45.3203 44.9932 46.4121C42.135 47.5039 42.1987 48.0173 41.9445 48.4029C41.5387 49.0191 42.0825 49.8924 41.7712 50.5154C41.7298 50.6073 41.668 50.6882 41.5905 50.7521C41.4625 50.8371 41.3112 50.8794 41.1581 50.873C41.0049 50.8667 40.8576 50.8119 40.737 50.7166C40.5918 50.5603 40.4789 50.3766 40.4047 50.1759C39.9982 49.255 39.2332 47.5772 39.2332 47.5772C39.7118 47.3486 40.2095 47.1631 40.7205 47.023C41.19 46.9474 41.19 47.7353 41.19 47.7353L41.4255 47.181C41.4994 47.0033 41.5311 46.8106 41.5181 46.6182C41.5051 46.4259 41.4477 46.2394 41.3505 46.0734C41.2755 45.8359 40.7243 45.5191 38.9242 44.7283C38.3401 44.4415 37.683 44.3417 37.041 44.4425C36.7584 44.4807 36.4944 44.6058 36.285 44.8009C36.6555 44.7596 37.0283 44.7434 37.401 44.7525C37.7978 44.8021 38.1814 44.9287 38.5305 45.1252H37.1213C36.1035 45.1252 35.3962 46.4703 35.3962 46.4703L36.0233 45.9161C36.5483 45.4488 37.2442 45.6 37.8232 45.5993C37.491 45.5993 37.1047 46.149 36.9585 46.4038C36.6442 47.0214 36.5857 47.7395 36.7958 48.4006C36.8108 48.4112 36.8055 48.3855 36.8055 48.3681C36.8055 48.0521 37.197 47.7353 37.197 47.7353L37.0402 48.6055C36.9358 49.155 36.9358 49.7195 37.0402 50.2689C37.0402 50.0315 37.5877 49.5567 37.5877 49.5567V50.1109C37.5837 50.2007 37.5696 50.2897 37.5457 50.3763C37.5398 50.3998 37.5322 50.4262 37.524 50.4519C37.4143 50.6404 37.2354 50.7779 37.026 50.8345C36.8166 50.8911 36.5935 50.8623 36.405 50.7544C36.3276 50.6904 36.2658 50.6095 36.2242 50.5177C35.9122 49.8947 36.4568 49.0214 36.051 48.4052C35.7968 48.0196 35.8605 47.5062 33.0023 46.4144C30.144 45.3226 30.1432 41.5338 30.1432 41.5338L30.3975 40.9561C30.3975 40.9561 29.6355 40.2499 29.6985 39.9286C29.7615 39.6072 30.588 39.5429 30.588 39.5429C30.588 39.5429 29.892 38.6417 29.3205 38.8988C29.1409 39.0065 28.9896 39.156 28.8791 39.3347C28.7685 39.5135 28.7021 39.7163 28.6852 39.9263V40.758C28.1679 40.343 27.6991 39.8699 27.288 39.3479C26.7803 38.6409 26.2717 38.1918 26.2088 37.999C26.352 38.433 26.4488 39.0636 26.5912 39.5543C26.9021 40.3741 27.2844 41.1645 27.7335 41.9163C27.0313 41.7186 26.3807 41.3679 25.8277 40.8888C25.32 40.3754 25.0027 40.2469 24.8752 39.9898C25.1096 40.6907 25.3851 41.3769 25.7003 42.0449C26.1346 42.7464 26.6233 43.412 27.162 44.0357C26.3873 43.8421 25.6237 43.6061 24.8745 43.3287C24.3443 43.0945 23.8343 42.8163 23.3498 42.497C23.9925 43.9109 25.2653 44.7109 26.55 45.4511C26.8617 45.6758 27.1948 45.8685 27.5445 46.0265C26.4585 46.7584 25.1445 46.6442 23.9085 46.4983C23.3085 46.461 22.7159 46.3456 22.1452 46.155C21.5085 45.8972 21 45.6409 21 45.6409L21.024 45.6628C21.6576 46.2268 22.3612 46.7054 23.1172 47.0865C24.4679 47.6943 25.9045 48.0854 27.375 48.2456C27.6801 48.3251 27.9916 48.3775 28.3057 48.4021C27.7913 49.2701 23.6632 50.5744 22.4865 50.6213C23.4495 50.7468 24.4095 50.8806 25.3793 50.9525C26.5225 51.1051 27.6829 51.0678 28.8142 50.8421C30.72 50.3279 30.021 50.5207 30.021 50.5207C29.925 50.5472 29.6768 51.1105 29.6145 51.2012C29.2997 51.6707 28.9126 52.0865 28.4677 52.4329C27.4463 53.245 26.324 53.9194 25.1295 54.4388C25.0929 54.448 25.0614 54.4714 25.0417 54.5039C25.2232 54.6256 25.5938 54.5583 25.8 54.5485C27.5157 54.4049 29.1685 53.8313 30.6082 52.8798C30.8524 52.7646 31.0814 52.6194 31.29 52.4473L31.4805 52.2545C31.1854 52.8318 30.955 53.4404 30.7935 54.0691C30.5402 55.2417 30.4661 56.4465 30.5738 57.6417C30.5843 57.932 30.585 58.2239 30.5887 58.5142C30.5887 58.5943 30.6038 58.6737 30.6038 58.7539C30.8176 58.3931 31.0029 58.0159 31.158 57.6258C31.3425 57.2477 31.5293 56.8742 31.7227 56.503C31.9787 55.9268 32.3025 55.3838 32.6873 54.8857C33.2587 54.243 33.6398 53.7939 33.6398 53.7939C33.6476 55.4732 33.7963 57.1489 34.0845 58.803L34.4655 60.0234C34.4326 58.8771 34.5588 57.7319 34.8405 56.6209C35.0644 56.0075 35.3653 55.4256 35.736 54.8895C35.916 55.3514 36.081 55.8217 36.225 56.2966C36.4434 57.0776 36.4325 57.9057 36.1935 58.6805C36.0955 59.1878 35.942 59.6825 35.736 60.1557C35.4818 60.6698 36.6255 59.4495 36.816 59.1281C37.0065 58.8068 37.8323 57.2016 37.7685 56.4954C37.7048 55.7892 38.2133 56.4311 38.34 56.9453C38.4792 57.4027 38.5229 57.8842 38.4683 58.3594C38.4137 58.8347 38.262 59.2934 38.0228 59.7066C37.1229 61.1005 36.1027 62.4116 34.974 63.6247L36.6893 62.4686L35.6093 65.6155L37.575 63.3018L36.6225 66.9621C36.6225 66.9621 38.1322 64.4541 38.2103 64.1365C38.265 63.915 38.8403 67.9034 38.997 68.999C39.153 67.9034 39.729 63.915 39.7838 64.1365C39.8587 64.4541 41.3715 66.9621 41.3715 66.9621L40.425 63.3018L42.3937 65.6139L41.3137 62.4671L43.029 63.6231C41.8985 62.4103 40.8766 61.0992 39.975 59.705C39.7356 59.2919 39.5838 58.8332 39.5292 58.3579C39.4746 57.8827 39.5184 57.4011 39.6578 56.9438C39.7845 56.4296 40.293 55.7877 40.2292 56.4939C40.1655 57.2001 40.9913 58.8053 41.1818 59.1266C41.3722 59.448 42.5153 60.6683 42.2618 60.1542C42.056 59.6809 41.9026 59.1862 41.8043 58.679C41.5662 57.9044 41.5561 57.0769 41.775 56.2966C41.9183 55.821 42.084 55.3514 42.264 54.8895C42.6349 55.4255 42.9359 56.0074 43.1595 56.6209C43.4415 57.7331 43.5677 58.8797 43.5345 60.0271L43.9155 58.8068C44.2036 57.1527 44.3524 55.477 44.3602 53.7977C44.3602 53.7977 44.7412 54.2468 45.3127 54.8895C45.6965 55.3873 46.0196 55.9297 46.275 56.5052C46.4685 56.8765 46.656 57.253 46.8397 57.6288C46.9949 58.0189 47.1803 58.3961 47.394 58.7569C47.394 58.6768 47.4075 58.5974 47.409 58.5172C47.409 58.2269 47.4135 57.935 47.424 57.6447C47.5319 56.4495 47.458 55.2448 47.205 54.0721C47.0434 53.4434 46.813 52.8348 46.518 52.2575L46.7085 52.4503C46.9168 52.6228 47.1458 52.7681 47.3903 52.8828C48.8307 53.8337 50.484 54.4066 52.2 54.5492C52.4062 54.5583 52.7768 54.6248 52.9583 54.5039C52.9487 54.4877 52.936 54.4736 52.9209 54.4624C52.9058 54.4512 52.8887 54.4432 52.8705 54.4388C51.6759 53.9195 50.5537 53.2452 49.5322 52.4329C49.0878 52.0862 48.701 51.6705 48.3862 51.2012C48.324 51.1112 48.0758 50.5479 47.9797 50.5207C47.9797 50.5207 47.2808 50.3279 49.1865 50.8421C50.3181 51.0678 51.4787 51.1051 52.6222 50.9525C53.592 50.8769 54.5513 50.7468 55.515 50.6213C54.3375 50.5744 50.2095 49.2701 49.695 48.4021C50.0089 48.3772 50.3201 48.3248 50.625 48.2456Z" fill="white"/>
</g>
<path d="M78.3318 46.4782C77.98 46.499 77.7265 46.5405 77.5713 46.6027C77.4161 46.6649 77.3075 46.7842 77.2454 46.9606C77.1936 47.1369 77.1678 47.4222 77.1678 47.8164V55.5342C77.1678 55.9284 77.1936 56.2137 77.2454 56.39C77.3075 56.5664 77.4161 56.6857 77.5713 56.7479C77.7368 56.8102 77.9903 56.8517 78.3318 56.8724V57.1836C77.7627 57.1525 76.9505 57.1369 75.8951 57.1369C74.788 57.1369 73.9706 57.1525 73.4429 57.1836V56.8724C73.8154 56.8517 74.0844 56.8102 74.25 56.7479C74.4259 56.6857 74.5449 56.5664 74.607 56.39C74.669 56.2137 74.7001 55.9284 74.7001 55.5342V47.3963L70.9597 57.1992H70.7114L66.521 47.1784V54.6317C66.521 55.2438 66.552 55.695 66.6141 55.9855C66.6762 56.2656 66.8107 56.473 67.0176 56.6079C67.2246 56.7324 67.5608 56.8205 68.0264 56.8724V57.1836C67.6229 57.1525 67.0642 57.1369 66.3503 57.1369C65.7812 57.1369 65.3311 57.1525 65 57.1836V56.8724C65.3414 56.8205 65.5898 56.7324 65.745 56.6079C65.9105 56.4834 66.0192 56.2863 66.0709 56.0166C66.133 55.7469 66.164 55.3475 66.164 54.8185V47.8164C66.164 47.4222 66.133 47.1369 66.0709 46.9606C66.0192 46.7842 65.9105 46.6649 65.745 46.6027C65.5898 46.5405 65.3414 46.499 65 46.4782V46.167C65.3311 46.1981 65.7812 46.2137 66.3503 46.2137C67.3022 46.2137 68.1195 46.1981 68.8024 46.167L71.9375 53.7448L74.7932 46.2137H75.8951C76.9505 46.2137 77.7627 46.1981 78.3318 46.167V46.4782Z" fill="white"/>
<path d="M86.4494 55.4876C86.4494 55.9647 86.5218 56.3122 86.6667 56.5301C86.8219 56.7479 87.0806 56.8568 87.4427 56.8568V57.1836C87.1219 57.1525 86.8012 57.1369 86.4804 57.1369C85.5803 57.1369 84.825 57.2095 84.2145 57.3548V55.9544C83.7386 56.9191 82.9056 57.4015 81.7158 57.4015C80.9398 57.4015 80.3759 57.1992 80.0241 56.7946C79.8585 56.5975 79.7344 56.3434 79.6516 56.0322C79.5792 55.7106 79.543 55.2905 79.543 54.7718V50.8351C79.543 50.3579 79.4654 50.0104 79.3102 49.7925C79.1653 49.5747 78.9118 49.4658 78.5497 49.4658V49.139C78.8704 49.1701 79.1912 49.1857 79.5119 49.1857C80.4121 49.1857 81.1674 49.1131 81.7779 48.9678V55.4098C81.7779 55.8454 81.8399 56.1722 81.9641 56.39C82.0986 56.6079 82.3469 56.7168 82.7091 56.7168C83.1229 56.7168 83.4747 56.5456 83.7644 56.2033C84.0645 55.8506 84.2145 55.4201 84.2145 54.9118V50.8351C84.2145 50.3579 84.1369 50.0104 83.9817 49.7925C83.8369 49.5747 83.5834 49.4658 83.2212 49.4658V49.139C83.5523 49.1701 83.8731 49.1857 84.1835 49.1857C85.0836 49.1857 85.8389 49.1131 86.4494 48.9678V55.4876Z" fill="white"/>
<path d="M90.9882 55.7365C90.9882 56.1618 91.0606 56.4575 91.2055 56.6234C91.3503 56.779 91.609 56.8568 91.9815 56.8568V57.1836C90.9054 57.1421 90.2122 57.1214 89.9018 57.1214C89.55 57.1214 88.8361 57.1421 87.76 57.1836V56.8568C88.1221 56.8568 88.3756 56.779 88.5205 56.6234C88.6757 56.4575 88.7533 56.1618 88.7533 55.7365V46.8672C88.7533 46.39 88.6757 46.0425 88.5205 45.8247C88.3756 45.6068 88.1221 45.4979 87.76 45.4979V45.1712C88.0911 45.2023 88.4119 45.2178 88.7223 45.2178C89.6224 45.2178 90.3777 45.1452 90.9882 45V55.7365Z" fill="white"/>
<path d="M95.482 49.139H97.3134V49.4502H95.482V55.7365C95.482 56.0477 95.5337 56.2707 95.6372 56.4056C95.751 56.5301 95.9269 56.5923 96.1649 56.5923C96.6098 56.5923 96.9616 56.2811 97.2202 55.6587L97.4841 55.7988C97.0909 56.8672 96.3822 57.4015 95.3578 57.4015C94.6749 57.4015 94.1576 57.2251 93.8058 56.8724C93.5885 56.6546 93.4385 56.3849 93.3557 56.0633C93.2833 55.7313 93.2471 55.2801 93.2471 54.7095V49.4502H91.9434V49.139H93.2471V47.0851C94.1059 47.0851 94.8508 46.9191 95.482 46.5871V49.139Z" fill="white"/>
<path d="M99.4949 45.1245C99.9295 45.1245 100.271 45.2334 100.519 45.4512C100.778 45.6587 100.907 45.9492 100.907 46.3226C100.907 46.6961 100.778 46.9917 100.519 47.2095C100.271 47.417 99.9295 47.5207 99.4949 47.5207C99.0603 47.5207 98.7137 47.417 98.4551 47.2095C98.2067 46.9917 98.0826 46.6961 98.0826 46.3226C98.0826 45.9492 98.2067 45.6587 98.4551 45.4512C98.7137 45.2334 99.0603 45.1245 99.4949 45.1245ZM100.705 55.7365C100.705 56.1618 100.778 56.4575 100.923 56.6234C101.078 56.779 101.337 56.8568 101.699 56.8568V57.1836C100.664 57.1421 99.976 57.1214 99.6346 57.1214C99.3138 57.1214 98.5947 57.1421 97.4773 57.1836V56.8568C97.8498 56.8568 98.1084 56.779 98.2533 56.6234C98.3982 56.4575 98.4706 56.1618 98.4706 55.7365V50.8351C98.4706 50.3579 98.3982 50.0104 98.2533 49.7925C98.1084 49.5747 97.8498 49.4658 97.4773 49.4658V49.139C97.8084 49.1701 98.1291 49.1857 98.4395 49.1857C99.3604 49.1857 100.116 49.1131 100.705 48.9678V55.7365Z" fill="white"/>
<path d="M106.098 48.9212C106.48 48.9212 106.843 48.9627 107.184 49.0456C107.525 49.1286 107.81 49.2427 108.038 49.388C108.307 49.5539 108.514 49.7666 108.658 50.0259C108.814 50.2749 108.891 50.5498 108.891 50.8506C108.891 51.2137 108.777 51.5145 108.55 51.7531C108.322 51.9813 108.027 52.0954 107.665 52.0954C107.303 52.0954 107.013 51.9917 106.796 51.7842C106.579 51.5768 106.47 51.2967 106.47 50.944C106.47 50.6328 106.568 50.3631 106.765 50.1349C106.962 49.9066 107.205 49.751 107.494 49.6681C107.412 49.5539 107.282 49.4658 107.106 49.4035C106.941 49.3309 106.76 49.2946 106.563 49.2946C105.942 49.2946 105.456 49.6369 105.104 50.3216C104.763 50.9959 104.592 51.8828 104.592 52.9824C104.592 54.0923 104.789 54.8911 105.182 55.3786C105.575 55.8662 106.067 56.11 106.656 56.11C107.008 56.11 107.36 56.0166 107.712 55.8299C108.074 55.6432 108.4 55.3164 108.689 54.8496L108.953 54.9429C108.746 55.6172 108.384 56.1981 107.867 56.6857C107.35 57.1629 106.682 57.4015 105.865 57.4015C104.799 57.4015 103.93 57.0488 103.257 56.3434C102.585 55.638 102.249 54.5902 102.249 53.2002C102.249 52.2873 102.414 51.5093 102.745 50.8662C103.076 50.223 103.532 49.7407 104.111 49.4191C104.69 49.0871 105.353 48.9212 106.098 48.9212Z" fill="white"/>
<path d="M113.456 48.9212C114.645 48.9212 115.577 49.2635 116.249 49.9481C116.922 50.6224 117.258 51.6961 117.258 53.1691C117.258 54.6421 116.922 55.7158 116.249 56.39C115.577 57.0643 114.645 57.4015 113.456 57.4015C112.276 57.4015 111.345 57.0643 110.662 56.39C109.989 55.7158 109.653 54.6421 109.653 53.1691C109.653 51.6961 109.989 50.6224 110.662 49.9481C111.345 49.2635 112.276 48.9212 113.456 48.9212ZM113.456 49.2324C113.011 49.2324 112.654 49.5591 112.385 50.2127C112.126 50.8558 111.997 51.8413 111.997 53.1691C111.997 54.4969 112.126 55.4824 112.385 56.1255C112.654 56.7687 113.011 57.0902 113.456 57.0902C113.911 57.0902 114.268 56.7739 114.527 56.1411C114.785 55.4979 114.915 54.5073 114.915 53.1691C114.915 51.8309 114.78 50.8402 114.511 50.1971C114.252 49.5539 113.901 49.2324 113.456 49.2324Z" fill="white"/>
<path d="M119.934 45.1245C120.369 45.1245 120.71 45.2334 120.959 45.4512C121.217 45.6587 121.347 45.9492 121.347 46.3226C121.347 46.6961 121.217 46.9917 120.959 47.2095C120.71 47.417 120.369 47.5207 119.934 47.5207C119.5 47.5207 119.153 47.417 118.894 47.2095C118.646 46.9917 118.522 46.6961 118.522 46.3226C118.522 45.9492 118.646 45.6587 118.894 45.4512C119.153 45.2334 119.5 45.1245 119.934 45.1245ZM121.145 55.7365C121.145 56.1618 121.217 56.4575 121.362 56.6234C121.517 56.779 121.776 56.8568 122.138 56.8568V57.1836C121.103 57.1421 120.415 57.1214 120.074 57.1214C119.753 57.1214 119.034 57.1421 117.917 57.1836V56.8568C118.289 56.8568 118.548 56.779 118.693 56.6234C118.837 56.4575 118.91 56.1618 118.91 55.7365V50.8351C118.91 50.3579 118.837 50.0104 118.693 49.7925C118.548 49.5747 118.289 49.4658 117.917 49.4658V49.139C118.248 49.1701 118.568 49.1857 118.879 49.1857C119.8 49.1857 120.555 49.1131 121.145 48.9678V55.7365Z" fill="white"/>
<path d="M128.275 48.9212C129.062 48.9212 129.631 49.1234 129.982 49.528C130.158 49.7251 130.282 49.9793 130.355 50.2905C130.427 50.6017 130.463 51.0218 130.463 51.5508V55.7365C130.463 56.1618 130.536 56.4575 130.681 56.6234C130.836 56.779 131.095 56.8568 131.457 56.8568V57.1836C130.422 57.1421 129.739 57.1214 129.408 57.1214C129.098 57.1214 128.425 57.1421 127.39 57.1836V56.8568C127.701 56.8568 127.918 56.779 128.042 56.6234C128.167 56.4575 128.229 56.1618 128.229 55.7365V50.8973C128.229 50.472 128.156 50.1504 128.011 49.9326C127.877 49.7147 127.628 49.6058 127.266 49.6058C126.842 49.6058 126.48 49.7822 126.18 50.1349C125.88 50.4772 125.73 50.9025 125.73 51.4108V55.7365C125.73 56.1618 125.792 56.4575 125.916 56.6234C126.04 56.779 126.258 56.8568 126.568 56.8568V57.1836C125.616 57.1421 124.975 57.1214 124.643 57.1214C124.333 57.1214 123.619 57.1421 122.502 57.1836V56.8568C122.874 56.8568 123.133 56.779 123.278 56.6234C123.423 56.4575 123.495 56.1618 123.495 55.7365V50.8351C123.495 50.3579 123.423 50.0104 123.278 49.7925C123.133 49.5747 122.874 49.4658 122.502 49.4658V49.139C122.833 49.1701 123.154 49.1857 123.464 49.1857C124.385 49.1857 125.14 49.1131 125.73 48.9678V50.3683C126.195 49.4035 127.044 48.9212 128.275 48.9212Z" fill="white"/>
<path d="M140.826 45.9492C141.446 45.9492 141.974 46.0373 142.409 46.2137C142.843 46.39 143.267 46.639 143.681 46.9606C143.795 47.0539 143.893 47.1006 143.976 47.1006C144.183 47.1006 144.318 46.7894 144.38 46.167H144.737C144.695 46.8724 144.675 48.1276 144.675 49.9326H144.318C144.225 49.1649 144.1 48.5788 143.945 48.1743C143.79 47.7697 143.526 47.417 143.154 47.1162C142.895 46.8672 142.595 46.6805 142.253 46.556C141.912 46.4212 141.555 46.3537 141.183 46.3537C140.138 46.3537 139.362 46.8672 138.855 47.8942C138.348 48.9108 138.094 50.1815 138.094 51.7064C138.094 53.221 138.358 54.4865 138.886 55.5031C139.413 56.5197 140.2 57.028 141.245 57.028C141.596 57.028 141.943 56.9658 142.284 56.8413C142.636 56.7064 142.931 56.5145 143.169 56.2656C143.552 55.9751 143.816 55.612 143.961 55.1763C144.116 54.7407 144.235 54.1027 144.318 53.2624H144.675C144.675 55.14 144.695 56.4471 144.737 57.1836H144.38C144.349 56.8517 144.302 56.6183 144.24 56.4834C144.188 56.3382 144.111 56.2656 144.007 56.2656C143.924 56.2656 143.816 56.3071 143.681 56.39C143.216 56.722 142.771 56.9761 142.347 57.1525C141.922 57.3185 141.41 57.4015 140.81 57.4015C139.713 57.4015 138.751 57.1784 137.923 56.7324C137.106 56.2863 136.47 55.6432 136.014 54.8029C135.559 53.9523 135.331 52.9409 135.331 51.7687C135.331 50.6276 135.564 49.6162 136.03 48.7344C136.495 47.8527 137.142 47.1681 137.97 46.6805C138.808 46.1929 139.76 45.9492 140.826 45.9492Z" fill="white"/>
<path d="M147.718 57.2925C147.056 57.2925 146.559 57.1214 146.228 56.779C145.907 56.4367 145.747 55.9855 145.747 55.4253C145.747 54.9585 145.866 54.5747 146.104 54.2739C146.352 53.9627 146.647 53.7241 146.988 53.5581C147.34 53.3921 147.785 53.2158 148.323 53.029C148.892 52.832 149.306 52.6556 149.565 52.5C149.834 52.334 149.968 52.111 149.968 51.8309V50.6172C149.968 50.1815 149.865 49.8444 149.658 49.6058C149.461 49.3568 149.151 49.2324 148.727 49.2324C148.23 49.2324 147.852 49.3568 147.594 49.6058C147.883 49.7095 148.106 49.8651 148.261 50.0726C148.426 50.2801 148.509 50.5239 148.509 50.8039C148.509 51.1566 148.39 51.4367 148.152 51.6442C147.914 51.8517 147.625 51.9554 147.283 51.9554C146.921 51.9554 146.642 51.8413 146.445 51.6131C146.249 51.3849 146.15 51.0996 146.15 50.7573C146.15 50.4668 146.217 50.223 146.352 50.0259C146.497 49.8185 146.714 49.6266 147.004 49.4502C147.283 49.2842 147.625 49.1546 148.028 49.0612C148.442 48.9678 148.892 48.9212 149.378 48.9212C149.885 48.9212 150.325 48.973 150.698 49.0768C151.07 49.1805 151.38 49.3568 151.629 49.6058C151.856 49.834 152.006 50.1141 152.079 50.4461C152.162 50.778 152.203 51.2293 152.203 51.7998V56.0322C152.203 56.2811 152.224 56.4575 152.265 56.5612C152.317 56.6649 152.41 56.7168 152.544 56.7168C152.7 56.7168 152.886 56.6286 153.103 56.4523L153.258 56.7168C152.793 57.1006 152.224 57.2925 151.551 57.2925C150.982 57.2925 150.584 57.1784 150.356 56.9502C150.129 56.722 150.01 56.416 149.999 56.0322C149.482 56.8724 148.721 57.2925 147.718 57.2925ZM148.913 56.2967C149.316 56.2967 149.668 56.084 149.968 55.6587V52.4689C149.844 52.6763 149.58 52.9046 149.177 53.1535C148.773 53.4129 148.468 53.6722 148.261 53.9315C148.054 54.1909 147.951 54.5643 147.951 55.0519C147.951 55.4772 148.038 55.7936 148.214 56.001C148.39 56.1981 148.623 56.2967 148.913 56.2967Z" fill="white"/>
<path d="M158.963 48.9212C159.501 48.9212 159.977 49.0664 160.391 49.3568C160.815 49.6473 161.146 50.083 161.384 50.6639C161.622 51.2448 161.741 51.9554 161.741 52.7956C161.741 54.279 161.415 55.4201 160.764 56.2189C160.122 57.0073 159.248 57.4015 158.141 57.4015C157.83 57.4015 157.535 57.36 157.256 57.277C156.987 57.194 156.754 57.0695 156.558 56.9035V58.4595C156.558 58.916 156.671 59.2324 156.899 59.4087C157.127 59.5851 157.479 59.6732 157.954 59.6732V60L157.535 59.9844C156.387 59.9533 155.657 59.9378 155.347 59.9378C155.037 59.9378 154.385 59.9585 153.392 60V59.6732C153.733 59.6732 153.971 59.5954 154.105 59.4398C154.25 59.2946 154.323 59.0197 154.323 58.6151V50.8351C154.323 50.3579 154.245 50.0104 154.09 49.7925C153.945 49.5747 153.692 49.4658 153.329 49.4658V49.139C153.661 49.1701 153.981 49.1857 154.292 49.1857C155.192 49.1857 155.947 49.1131 156.558 48.9678V50.3994C156.775 49.9222 157.091 49.5591 157.504 49.3102C157.918 49.0508 158.405 48.9212 158.963 48.9212ZM157.535 56.9813C158.198 56.9813 158.674 56.6546 158.963 56.001C159.253 55.3371 159.398 54.3724 159.398 53.1068C159.398 51.8413 159.279 50.9388 159.041 50.3994C158.813 49.86 158.482 49.5902 158.048 49.5902C157.696 49.5902 157.38 49.7095 157.101 49.9481C156.832 50.1867 156.651 50.5187 156.558 50.944V56.5612C156.806 56.8413 157.132 56.9813 157.535 56.9813Z" fill="white"/>
<path d="M164.405 45.1245C164.839 45.1245 165.181 45.2334 165.429 45.4512C165.688 45.6587 165.817 45.9492 165.817 46.3226C165.817 46.6961 165.688 46.9917 165.429 47.2095C165.181 47.417 164.839 47.5207 164.405 47.5207C163.97 47.5207 163.624 47.417 163.365 47.2095C163.117 46.9917 162.992 46.6961 162.992 46.3226C162.992 45.9492 163.117 45.6587 163.365 45.4512C163.624 45.2334 163.97 45.1245 164.405 45.1245ZM165.615 55.7365C165.615 56.1618 165.688 56.4575 165.833 56.6234C165.988 56.779 166.246 56.8568 166.609 56.8568V57.1836C165.574 57.1421 164.886 57.1214 164.544 57.1214C164.224 57.1214 163.505 57.1421 162.387 57.1836V56.8568C162.76 56.8568 163.018 56.779 163.163 56.6234C163.308 56.4575 163.38 56.1618 163.38 55.7365V50.8351C163.38 50.3579 163.308 50.0104 163.163 49.7925C163.018 49.5747 162.76 49.4658 162.387 49.4658V49.139C162.718 49.1701 163.039 49.1857 163.349 49.1857C164.27 49.1857 165.026 49.1131 165.615 48.9678V55.7365Z" fill="white"/>
<path d="M170.123 49.139H171.954V49.4502H170.123V55.7365C170.123 56.0477 170.175 56.2707 170.278 56.4056C170.392 56.5301 170.568 56.5923 170.806 56.5923C171.251 56.5923 171.602 56.2811 171.861 55.6587L172.125 55.7988C171.732 56.8672 171.023 57.4015 169.999 57.4015C169.316 57.4015 168.798 57.2251 168.447 56.8724C168.229 56.6546 168.079 56.3849 167.997 56.0633C167.924 55.7313 167.888 55.2801 167.888 54.7095V49.4502H166.584V49.139H167.888V47.0851C168.747 47.0851 169.492 46.9191 170.123 46.5871V49.139Z" fill="white"/>
<path d="M174.167 57.2925C173.505 57.2925 173.008 57.1214 172.677 56.779C172.356 56.4367 172.196 55.9855 172.196 55.4253C172.196 54.9585 172.315 54.5747 172.553 54.2739C172.801 53.9627 173.096 53.7241 173.437 53.5581C173.789 53.3921 174.234 53.2158 174.772 53.029C175.341 52.832 175.755 52.6556 176.014 52.5C176.283 52.334 176.417 52.111 176.417 51.8309V50.6172C176.417 50.1815 176.314 49.8444 176.107 49.6058C175.91 49.3568 175.6 49.2324 175.176 49.2324C174.679 49.2324 174.301 49.3568 174.043 49.6058C174.332 49.7095 174.555 49.8651 174.71 50.0726C174.876 50.2801 174.958 50.5239 174.958 50.8039C174.958 51.1566 174.839 51.4367 174.601 51.6442C174.363 51.8517 174.074 51.9554 173.732 51.9554C173.37 51.9554 173.091 51.8413 172.894 51.6131C172.698 51.3849 172.599 51.0996 172.599 50.7573C172.599 50.4668 172.667 50.223 172.801 50.0259C172.946 49.8185 173.163 49.6266 173.453 49.4502C173.732 49.2842 174.074 49.1546 174.477 49.0612C174.891 48.9678 175.341 48.9212 175.827 48.9212C176.334 48.9212 176.774 48.973 177.147 49.0768C177.519 49.1805 177.83 49.3568 178.078 49.6058C178.306 49.834 178.456 50.1141 178.528 50.4461C178.611 50.778 178.652 51.2293 178.652 51.7998V56.0322C178.652 56.2811 178.673 56.4575 178.714 56.5612C178.766 56.6649 178.859 56.7168 178.994 56.7168C179.149 56.7168 179.335 56.6286 179.552 56.4523L179.707 56.7168C179.242 57.1006 178.673 57.2925 178 57.2925C177.431 57.2925 177.033 57.1784 176.805 56.9502C176.578 56.722 176.459 56.416 176.448 56.0322C175.931 56.8724 175.17 57.2925 174.167 57.2925ZM175.362 56.2967C175.765 56.2967 176.117 56.084 176.417 55.6587V52.4689C176.293 52.6763 176.029 52.9046 175.626 53.1535C175.222 53.4129 174.917 53.6722 174.71 53.9315C174.503 54.1909 174.4 54.5643 174.4 55.0519C174.4 55.4772 174.488 55.7936 174.663 56.001C174.839 56.1981 175.072 56.2967 175.362 56.2967Z" fill="white"/>
<path d="M183.007 55.7365C183.007 56.1618 183.079 56.4575 183.224 56.6234C183.369 56.779 183.628 56.8568 184 56.8568V57.1836C182.924 57.1421 182.231 57.1214 181.92 57.1214C181.569 57.1214 180.855 57.1421 179.779 57.1836V56.8568C180.141 56.8568 180.394 56.779 180.539 56.6234C180.694 56.4575 180.772 56.1618 180.772 55.7365V46.8672C180.772 46.39 180.694 46.0425 180.539 45.8247C180.394 45.6068 180.141 45.4979 179.779 45.4979V45.1712C180.11 45.2023 180.43 45.2178 180.741 45.2178C181.641 45.2178 182.396 45.1452 183.007 45V55.7365Z" fill="white"/>
<defs>
<clipPath id="clip0">
<rect width="36" height="31" fill="white" transform="translate(21 38)"/>
</clipPath>
</defs>
</svg>
